<svg width="40" height="40" viewBox="0 0 40 40" fill="none" xmlns="http://www.w3.org/2000/svg">
    <path d="M20.4999 8C13.6074 8 8 13.6073 8 20.4996C8 27.3924 13.6074 33 20.4999 33C27.3922 33 32.9995 27.3923 32.9995 20.4996C32.9995 13.6073 27.3922 8 20.4999 8ZM20.4999 31.2081C14.5955 31.2081 9.79186 26.4043 9.79186 20.4996C9.79186 14.5954 14.5955 9.79186 20.4999 9.79186C26.4042 9.79186 31.2077 14.5954 31.2077 20.4996C31.2077 26.4043 26.4042 31.2081 20.4999 31.2081Z" fill="#085F97"/>
    <path d="M26.927 20.2905H21.0528V13.8694C21.0528 13.3746 20.6518 12.9735 20.1569 12.9735C19.6621 12.9735 19.261 13.3746 19.261 13.8694V21.1864C19.261 21.6812 19.6621 22.0824 20.1569 22.0824H26.927C27.4219 22.0824 27.823 21.6812 27.823 21.1864C27.823 20.6916 27.4218 20.2905 26.927 20.2905Z" fill="#085F97"/>
</svg>
