<svg width="40" height="40" viewBox="0 0 40 40" fill="none" xmlns="http://www.w3.org/2000/svg">
    <path d="M30.1321 23.2173C30.4744 22.6816 30.7705 22.1218 31.0225 21.5444H32.9739C35.6459 21.5444 37.8196 19.3706 37.8196 16.6987C37.8196 14.0269 35.6458 11.8532 32.9739 11.8532H32.0323V9H7.78739V16.6986C7.78739 19.0174 8.44453 21.2716 9.68765 23.2172C10.2474 24.0933 10.9145 24.8878 11.6684 25.5871H2V27.3604C2 29.9186 4.08132 32 6.63949 32H33.1802C35.7383 32 37.8197 29.9186 37.8197 27.3604V25.5871H28.1513C28.9051 24.8879 29.5723 24.0934 30.1321 23.2173ZM32.0323 16.6987V13.9812H32.974C34.4726 13.9812 35.6917 15.2003 35.6917 16.6987C35.6917 18.1973 34.4725 19.4164 32.974 19.4164H31.7239C31.9268 18.5308 32.0323 17.62 32.0323 16.6987ZM11.4809 22.0716C10.4567 20.4687 9.91538 18.6108 9.91538 16.6986V11.1281H29.9044V16.6986C29.9044 18.6108 29.363 20.4687 28.3389 22.0716C27.3839 23.5661 26.0545 24.7776 24.484 25.5872H15.3357C13.7651 24.7777 12.4358 23.5661 11.4809 22.0716ZM35.6668 27.7152C35.4939 28.9328 34.4447 29.8722 33.1802 29.8722H6.63949C5.37495 29.8722 4.32576 28.9328 4.15289 27.7152H14.8397H24.9801H35.6668Z" fill="#085F97" stroke="white" stroke-width="0.5"/>
</svg>
