<svg width="40" height="40" viewBox="0 0 40 40" fill="none" xmlns="http://www.w3.org/2000/svg">
    <path d="M19.5003 30.0845C19.3594 30.0845 19.2252 30.0222 19.1332 29.9139L8.11256 16.8242C7.9851 16.6728 7.96402 16.4582 8.05889 16.2857L11.9228 9.25063C12.0072 9.0973 12.1682 9.00146 12.3426 9.00146H26.658C26.8333 9.00146 26.9943 9.0973 27.0777 9.25063L30.9407 16.2857C31.0365 16.4591 31.0145 16.6728 30.887 16.8242L19.8664 29.9139C19.7753 30.0222 19.6411 30.0845 19.5003 30.0845ZM9.05842 16.4582L19.5003 28.8617L29.9421 16.4582L26.3743 9.95978H12.6262L9.05842 16.4582Z" fill="#085F97" stroke="#085F97" stroke-width="0.5"/>
    <path d="M30.2814 17.147H8.71915C8.45465 17.147 8.23999 16.9324 8.23999 16.6679C8.23999 16.4034 8.45465 16.1887 8.71915 16.1887H30.2814C30.5458 16.1887 30.7605 16.4034 30.7605 16.6679C30.7605 16.9324 30.5458 17.147 30.2814 17.147Z" fill="#085F97" stroke="#085F97" stroke-width="0.5"/>
    <path d="M24.3513 16.8778C24.2009 16.8778 24.0523 16.8069 23.9594 16.6737L19.5022 10.3171L15.1016 16.6401C14.9521 16.8577 14.6522 16.9104 14.4356 16.7599C14.2171 16.6085 14.1644 16.3104 14.3158 16.0929L19.1074 9.20642C19.1965 9.07801 19.3431 9.00134 19.4993 9.00134H19.5003C19.6565 9.00134 19.8022 9.07705 19.8923 9.20547L24.7433 16.1236C24.8956 16.3411 24.8429 16.6392 24.6264 16.7906C24.5439 16.849 24.4472 16.8778 24.3513 16.8778Z" fill="#085F97" stroke="#085F97" stroke-width="0.5"/>
    <path d="M19.5004 30.0844C19.2972 30.0844 19.1171 29.957 19.049 29.7663L11.8913 9.64156C11.8032 9.39144 11.9335 9.11736 12.1817 9.02919C12.4328 8.9372 12.7059 9.0704 12.7941 9.31957L19.5004 28.1755L26.2067 9.31957C26.2949 9.07136 26.568 8.93911 26.8191 9.02919C27.0683 9.11736 27.1986 9.39144 27.1095 9.64156L19.9518 29.7663C19.8837 29.957 19.7036 30.0844 19.5004 30.0844Z" fill="#085F97" stroke="#085F97" stroke-width="0.5"/>
</svg>
