<svg width="40" height="40" viewBox="0 0 40 40" fill="none" xmlns="http://www.w3.org/2000/svg">
    <path d="M31.8335 11.7119L27.2881 7.16646C27.1815 7.05993 27.0373 7 26.8863 7H9.27274C8.01985 7 7 8.01926 7 9.27274V29.7273C7 30.9807 8.01985 32 9.27274 32H29.7273C30.9802 32 32 30.9807 32 29.7273V12.1136C31.9999 11.9627 31.94 11.8184 31.8335 11.7119ZM12.6818 8.13634H25.1818V14.9545C25.1818 15.5809 24.6724 16.0909 24.0455 16.0909H13.8182C13.1912 16.0909 12.6818 15.5809 12.6818 14.9545V8.13634ZM27.4545 30.8636H11.5454V20.6363H27.4545V30.8636ZM30.8636 29.7273C30.8636 30.3537 30.3542 30.8636 29.7273 30.8636H28.5909V20.0681C28.5909 19.7541 28.3368 19.4999 28.0227 19.4999H10.9773C10.6632 19.4999 10.4091 19.7541 10.4091 20.0681V30.8636H9.27274C8.64574 30.8636 8.1364 30.3537 8.1364 29.7273V9.27274C8.1364 8.64632 8.64579 8.1364 9.27274 8.1364H11.5455V14.9546C11.5454 16.208 12.5653 17.2273 13.8182 17.2273H24.0454C25.2983 17.2273 26.3182 16.208 26.3182 14.9545V8.13634H26.6511L30.8636 12.3489V29.7273Z" fill="#085F97" stroke="#085F97" stroke-width="0.5"/>
    <path d="M21.2044 14.954H23.4772C23.7912 14.954 24.0454 14.6999 24.0454 14.3858V9.84042C24.0454 9.52635 23.7912 9.27222 23.4772 9.27222H21.2044C20.8904 9.27222 20.6362 9.52635 20.6362 9.84042V14.3858C20.6362 14.6999 20.8904 14.954 21.2044 14.954ZM21.7726 10.4086H22.9089V13.8177H21.7726V10.4086Z" fill="#085F97" stroke="#085F97" stroke-width="0.5"/>
</svg>
