<svg width="131" height="122" viewBox="0 0 131 122" fill="none" xmlns="http://www.w3.org/2000/svg">
<path d="M1 121V101.294C2.33723 93.263 13.4808 90.684 13.4808 90.684M13.4808 90.684C13.4808 86.1371 13.4808 74.0116 13.4808 66.9381M13.4808 90.684C36.2137 111.451 95.0518 109.936 119.122 90.684M13.4808 66.9381C30.8648 36.6244 105.304 39.7084 119.122 66.9381M13.4808 66.9381C16.0313 69.2681 19.0363 71.3176 22.3957 73.093C48.9787 87.1421 97.7523 84.0299 119.122 66.9381M119.122 66.9381V90.684M119.122 90.684C122.391 91.5261 128.928 94.8269 128.928 101.294C128.928 107.761 128.928 116.79 128.928 121M45.1286 57.897C51.369 61.4336 56.2721 57.897 56.2721 57.897M66.5242 60.9281C72.7646 64.4647 77.6678 60.9281 77.6678 60.9281M83.0167 70.0223C89.2571 73.5589 94.606 70.5278 94.606 70.5278M119.122 70.0223C97.7523 87.114 39.7796 92.2528 13.4808 70.0223M36.2137 70.0223C42.4541 73.5589 48.2488 70.0223 48.2488 70.0223M83.0167 60.9281C89.2571 64.4647 94.1603 60.9281 94.1603 60.9281M21.5042 23.5413C30.0194 42.0039 43.7913 70.5278 43.7913 70.5278C43.7913 70.5278 21.0584 11.9209 19.7212 7.37379C18.384 2.82667 12.1119 2.75494 15.2638 9.89994C18.384 16.9732 19.0514 18.2233 21.5042 23.5413Z" stroke="#085F97" stroke-width="2" stroke-linecap="round"/>
<path d="M13.4805 70.0223V90.684C36.2134 111.451 95.0514 109.936 119.122 90.684V70.0223C97.752 87.114 39.7793 92.2528 13.4805 70.0223Z" fill="#D6E1F0"/>
<path d="M13.4805 66.9381C13.4805 74.0116 13.4805 86.1371 13.4805 90.684C36.2134 111.451 95.0514 109.936 119.122 90.684V66.9381M119.122 70.0223C97.752 87.114 39.7793 92.2528 13.4805 70.0223M21.5038 23.5413C19.0511 18.2233 18.3836 16.9732 15.2634 9.89994C12.1116 2.75494 18.3836 2.82667 19.7209 7.37379" stroke="#085F97" stroke-width="2" stroke-linecap="round"/>
<path d="M90.1601 62.2679C90.1601 62.2679 100.345 40.3953 107.105 26.5247C109.053 22.5294 109.472 21.5249 112.122 16.313C114.798 11.0483 117.39 15.5884 115.406 18.4581C113.422 21.3278 90.1601 62.2679 90.1601 62.2679Z" stroke="#085F97" stroke-width="2"/>
<path d="M51.3724 59.0232L42.3004 16.7592M42.3004 16.7592L37.9488 12.5719C28.8205 1.71763 45.0212 -4.42898 43.1992 11.4139C42.9569 13.5211 42.3004 16.7592 42.3004 16.7592Z" stroke="#085F97" stroke-width="2"/>
<path d="M71.6692 61.6551L85.9652 21.2891M85.9652 21.2891L84.5721 15.0145C82.7121 0.167947 99.0464 5.84218 89.4381 17.5321C88.1601 19.0869 85.9652 21.2891 85.9652 21.2891Z" stroke="#085F97" stroke-width="2"/>
<path d="M90.1885 71.3933L118.793 42.3973M118.793 42.3973L119.999 36.0732C124.14 21.8311 136.561 35.1264 123.376 40.7753C121.622 41.5266 118.793 42.3973 118.793 42.3973Z" stroke="#085F97" stroke-width="2"/>
</svg>
