<svg width="44" height="20" viewBox="0 0 44 20" fill="none" xmlns="http://www.w3.org/2000/svg">
    <path opacity="0.2" fill-rule="evenodd" clip-rule="evenodd" d="M34.9412 20H9.05882C4.01176 20 0 15.5714 0 10C0 4.42857 4.01176 0 9.05882 0H34.9412C39.9882 0 44 4.42857 44 10C44 15.5714 39.9882 20 34.9412 20Z" fill="#33A4D5"/>
    <path d="M17.75 10C17.75 14.2802 14.2802 17.75 10 17.75C5.71979 17.75 2.25 14.2802 2.25 10C2.25 5.71979 5.71979 2.25 10 2.25C14.2802 2.25 17.75 5.71979 17.75 10Z" fill="white"/>
    <path d="M17.75 10C17.75 14.2802 14.2802 17.75 10 17.75C5.71979 17.75 2.25 14.2802 2.25 10C2.25 5.71979 5.71979 2.25 10 2.25C14.2802 2.25 17.75 5.71979 17.75 10Z" stroke="url(#paint0_linear)" stroke-width="0.5"/>
    <path d="M17.75 10C17.75 14.2802 14.2802 17.75 10 17.75C5.71979 17.75 2.25 14.2802 2.25 10C2.25 5.71979 5.71979 2.25 10 2.25C14.2802 2.25 17.75 5.71979 17.75 10Z" stroke="url(#paint1_linear)" stroke-width="0.5"/>
    <defs>
        <linearGradient id="paint0_linear" x1="2.07828" y1="2" x2="2.07828" y2="17.8434" gradientUnits="userSpaceOnUse">
            <stop stop-opacity="0"/>
            <stop offset="0.8" stop-opacity="0.02"/>
            <stop offset="1" stop-opacity="0.04"/>
        </linearGradient>
        <linearGradient id="paint1_linear" x1="2" y1="2" x2="2" y2="18" gradientUnits="userSpaceOnUse">
            <stop stop-color="white" stop-opacity="0.12"/>
            <stop offset="0.2" stop-color="white" stop-opacity="0.06"/>
            <stop offset="1" stop-color="white" stop-opacity="0"/>
        </linearGradient>
    </defs>
</svg>
