<svg width="20" height="20" viewBox="0 0 20 20" fill="none" xmlns="http://www.w3.org/2000/svg">
    <path fill-rule="evenodd" clip-rule="evenodd" d="M5.86712 2.29163C3.89558 2.29163 2.2915 3.89591 2.2915 5.86724V13.2996C2.2915 15.2711 3.89555 16.875 5.86712 16.875H13.2995C15.271 16.875 16.8748 15.2711 16.8748 13.2996V5.86724C16.8748 3.8959 15.271 2.29163 13.2995 2.29163H5.86712ZM3.50729 5.86724C3.50729 4.56595 4.56589 3.50765 5.86712 3.50765H13.2995C14.6007 3.50765 15.6593 4.56595 15.6593 5.86724V13.2996C15.6593 14.6011 14.6007 15.6596 13.2995 15.6596H5.86712C4.56584 15.6596 3.50729 14.6011 3.50729 13.2996V5.86724ZM13.5705 4.89975C13.1813 4.89975 12.8645 5.21658 12.8645 5.60531C12.8645 5.99432 13.1813 6.31111 13.5705 6.31111C13.9596 6.31111 14.2763 5.99441 14.2763 5.60531C14.2763 5.21649 13.9597 4.89975 13.5705 4.89975ZM9.58307 5.92851C7.56825 5.92851 5.92838 7.56816 5.92838 9.58319C5.92838 11.5982 7.56827 13.2381 9.58307 13.2381C11.5983 13.2381 13.2382 11.5982 13.2382 9.58319C13.2382 7.5684 11.5984 5.92851 9.58307 5.92851ZM7.14394 9.58319C7.14394 8.23837 8.23862 7.14453 9.58307 7.14453C10.9283 7.14453 12.0222 8.23841 12.0222 9.58319C12.0222 10.9284 10.9283 12.0228 9.58307 12.0228C8.23854 12.0228 7.14394 10.9284 7.14394 9.58319Z" fill="#33A4D5"/>
</svg>
