<svg width="226" height="63" viewBox="0 0 226 63" fill="none" xmlns="http://www.w3.org/2000/svg">
    <path d="M4.761 22H12.236V20.896L10.419 20.62C9.775 20.505 9.637 20.321 9.637 19.562V7.165H10.925C13.156 7.165 13.754 7.74 14.743 10.799L16.008 10.5L15.157 5.9H1.863L0.966 10.5L2.208 10.799C3.22 7.74 3.841 7.165 6.095 7.165H7.36V19.47C7.36 20.252 7.176 20.528 6.601 20.62L4.761 20.896V22ZM30.7115 22.322C31.6315 22.322 32.3905 22.023 33.0345 21.402L32.8045 20.574C32.3215 20.735 32.0455 20.781 31.7695 20.781C30.5045 20.781 30.1595 19.838 29.4925 18.274L28.6875 16.388C28.1815 15.192 27.5375 14.617 26.3645 14.295V14.226C28.6415 13.812 30.3665 11.995 30.3665 10.017C30.3665 7.326 28.2275 5.9 24.1795 5.9H18.4065V7.004L19.6945 7.211C20.3155 7.326 20.4535 7.51 20.4535 8.292V19.516C20.4535 20.367 20.3155 20.597 19.7405 20.689L18.4065 20.896V22H25.1915V20.896L23.5815 20.712C22.9145 20.62 22.7305 20.39 22.7305 19.562V14.686C23.0295 14.64 23.3515 14.617 23.7655 14.617C25.0995 14.617 25.4905 14.962 26.2265 16.733L27.3305 19.378C28.2505 21.632 29.0555 22.322 30.7115 22.322ZM24.0185 13.513C23.6965 13.513 23.3055 13.49 22.7305 13.467V7.142H24.0185C26.7095 7.142 27.9055 8.062 27.9055 10.155C27.9055 12.294 26.4795 13.513 24.0185 13.513ZM41.6442 22.322C46.1982 22.322 49.2802 18.78 49.2802 13.536C49.2802 8.752 46.3132 5.578 41.8512 5.578C37.1132 5.578 34.1002 8.959 34.1002 14.272C34.1002 19.102 37.1132 22.322 41.6442 22.322ZM41.9202 20.781C38.6082 20.781 36.5382 18.09 36.5382 13.789C36.5382 9.488 38.3552 7.05 41.5522 7.05C44.8412 7.05 46.7732 9.626 46.7732 13.973C46.7732 18.412 45.0942 20.781 41.9202 20.781ZM51.8508 22H58.6358V20.896L57.0258 20.712C56.3588 20.643 56.1748 20.39 56.1748 19.562V14.985H58.1758C59.8318 14.985 59.9928 15.169 60.3148 17.4L61.3728 17.216V11.535L60.3148 11.673C59.9468 13.49 59.8778 13.559 58.1758 13.559H56.1748V7.142H58.5668C60.7518 7.142 61.3498 7.648 62.3848 10.431L63.5808 10.017L62.7528 5.9H51.8508V7.004L53.1388 7.211C53.7598 7.303 53.8978 7.51 53.8978 8.292V19.516C53.8978 20.367 53.7598 20.597 53.1848 20.689L51.8508 20.896V22ZM66.0012 22H72.5562V20.896L71.1532 20.689C70.5552 20.574 70.4172 20.39 70.4172 19.608V8.384C70.4172 7.556 70.5552 7.303 71.1072 7.211L72.5562 7.004V5.9H66.0012V7.004L67.3812 7.211C68.0022 7.326 68.1402 7.51 68.1402 8.292V19.516C68.1402 20.367 68.0022 20.597 67.4272 20.689L66.0012 20.896V22ZM75.4353 22H81.0933V20.896L79.8053 20.689C79.1613 20.574 79.0233 20.367 79.0693 19.608L79.7593 7.855V7.671L83.8993 19.401H86.1993L90.5003 7.694V7.878L91.1903 19.516C91.1903 20.367 91.0523 20.597 90.4773 20.689L89.0513 20.896V22H95.6063V20.896L94.2033 20.689C93.6053 20.574 93.4673 20.39 93.4673 19.608L92.7773 8.384C92.7773 7.533 92.9153 7.28 93.4673 7.211L94.9163 7.004V5.9H89.6033L85.4863 17.331L85.3943 17.561L81.4613 5.9H76.1253V7.004L77.4133 7.211C78.0113 7.326 78.1493 7.51 78.1493 8.292L77.4593 19.516C77.4133 20.206 77.3903 20.597 76.7463 20.689L75.4353 20.896V22ZM105.298 22.322C109.852 22.322 112.934 18.78 112.934 13.536C112.934 8.752 109.967 5.578 105.505 5.578C100.767 5.578 97.7545 8.959 97.7545 14.272C97.7545 19.102 100.767 22.322 105.298 22.322ZM105.574 20.781C102.262 20.781 100.192 18.09 100.192 13.789C100.192 9.488 102.009 7.05 105.206 7.05C108.495 7.05 110.427 9.626 110.427 13.973C110.427 18.412 108.748 20.781 105.574 20.781ZM120.605 22H123.043L127.712 8.43C128.08 7.464 128.218 7.303 128.747 7.188L129.874 7.004V5.9H124.423V6.981L125.55 7.234C126.194 7.372 126.332 7.671 126.056 8.453L122.192 20.022H122.1L118.259 8.315C117.96 7.533 118.075 7.257 118.696 7.165L119.961 7.004V5.9H113.889V7.073L114.809 7.257C115.407 7.395 115.522 7.51 115.844 8.407L120.605 22ZM127.968 22H133.534V20.919L132.223 20.735C131.556 20.597 131.418 20.275 131.694 19.493L132.66 16.687H138.824L139.813 19.585C140.112 20.367 139.997 20.643 139.376 20.735L138.042 20.896V22H144.183V20.85L143.24 20.666C142.596 20.505 142.527 20.298 142.228 19.493L137.421 5.9H134.983L130.13 19.47C129.762 20.436 129.624 20.597 129.072 20.712L127.968 20.896V22ZM133.12 15.376L135.742 7.809H135.834L138.387 15.376H133.12ZM154.04 22H160.595V20.896L159.192 20.689C158.594 20.574 158.456 20.39 158.456 19.608V15.284L162.665 8.453C163.263 7.487 163.493 7.257 163.976 7.188L165.103 7.004V5.9H159.56V6.981L160.618 7.234C161.331 7.395 161.446 7.763 161.009 8.407L157.835 13.766H157.72L154.362 8.315C153.925 7.671 154.086 7.234 154.799 7.165L156.064 7.004V5.9H149.647V7.073L150.498 7.234C151.096 7.349 151.372 7.579 151.878 8.407L156.179 15.261V19.516C156.179 20.367 156.041 20.597 155.466 20.689L154.04 20.896V22ZM174.896 22.322C179.082 22.322 181.175 19.976 181.175 15.307V8.384C181.175 7.533 181.313 7.303 181.888 7.211L183.199 7.004V5.9H177.541V7.004L178.806 7.211C179.427 7.326 179.565 7.51 179.565 8.292V15.583C179.565 19.079 178.185 20.712 175.218 20.712C172.251 20.712 171.055 19.263 171.055 15.744V8.384C171.055 7.556 171.193 7.303 171.745 7.211L173.079 7.004V5.9H166.731V7.004L168.019 7.211C168.64 7.326 168.778 7.51 168.778 8.292V15.905C168.778 20.252 170.756 22.322 174.896 22.322ZM185.651 22H196.921L197.496 17.078H196.231C195.311 20.091 194.667 20.735 192.574 20.735H189.975V8.292C189.975 7.51 190.113 7.326 190.711 7.211L192.229 7.004V5.9H185.651V7.004L186.939 7.211C187.56 7.326 187.698 7.51 187.698 8.292V19.516C187.698 20.367 187.56 20.597 186.985 20.689L185.651 20.896V22ZM200.295 22H206.85V20.896L205.447 20.689C204.849 20.574 204.711 20.39 204.711 19.608V8.384C204.711 7.556 204.849 7.303 205.401 7.211L206.85 7.004V5.9H200.295V7.004L201.675 7.211C202.296 7.326 202.434 7.51 202.434 8.292V19.516C202.434 20.367 202.296 20.597 201.721 20.689L200.295 20.896V22ZM208.625 22H214.191V20.919L212.88 20.735C212.213 20.597 212.075 20.275 212.351 19.493L213.317 16.687H219.481L220.47 19.585C220.769 20.367 220.654 20.643 220.033 20.735L218.699 20.896V22H224.84V20.85L223.897 20.666C223.253 20.505 223.184 20.298 222.885 19.493L218.078 5.9H215.64L210.787 19.47C210.419 20.436 210.281 20.597 209.729 20.712L208.625 20.896V22ZM213.777 15.376L216.399 7.809H216.491L219.044 15.376H213.777Z" fill="white"/>
    <line x1="121.25" y1="35.5" x2="206.25" y2="35.5" stroke="white"/>
    <circle cx="113.25" cy="35" r="1" fill="white"/>
    <line x1="19.75" y1="35.5" x2="104.75" y2="35.5" stroke="white"/>
    <path d="M53.844 59H55.604L57.38 52.408H57.46L59.204 59H60.884L62.82 52.632C63.012 52.008 63.14 51.848 63.556 51.768L64.148 51.64V50.888H60.852L60.708 51.624L61.396 51.784C61.844 51.896 61.924 52.072 61.764 52.648L60.372 57.64H60.292L58.5 50.888H56.788L54.932 57.672H54.852L53.444 52.536C53.3 51.928 53.348 51.8 53.764 51.736L54.532 51.624V50.888H50.772L50.612 51.672L51.172 51.8C51.62 51.912 51.716 52.04 51.876 52.616L53.844 59ZM68.5913 59.224C69.7913 59.224 71.0073 58.616 71.7273 57.64L71.1673 57.08C70.5753 57.688 69.7753 58.04 68.9593 58.04C67.4073 58.04 66.4473 56.936 66.3832 55.064H71.3913C71.5353 54.488 71.6153 53.944 71.6153 53.496C71.6153 51.8 70.4313 50.664 68.6713 50.664C66.3193 50.664 64.7673 52.408 64.7673 55.048C64.7673 57.592 66.2553 59.224 68.5913 59.224ZM66.3832 54.168C66.5433 52.44 67.2793 51.512 68.4953 51.512C69.5513 51.512 70.1113 52.184 70.1113 53.432C70.1113 53.72 70.0953 53.96 70.0633 54.168H66.3832ZM76.3441 59.224C77.4161 59.224 78.2961 58.776 79.0001 57.88H79.0481L79.2721 59.144L81.7361 59.048V58.296L80.9521 58.152C80.5201 58.072 80.4241 57.944 80.4241 57.432V46.92L80.2481 46.744L77.6401 46.824L77.5441 47.624L78.2481 47.736C78.8401 47.832 78.9361 47.96 78.9361 48.696V51.192C78.4401 50.872 77.6721 50.664 76.9681 50.664C74.5681 50.664 73.0641 52.408 73.0641 55.192C73.0641 57.736 74.2801 59.224 76.3441 59.224ZM76.8081 58.072C75.4161 58.072 74.6481 57 74.6481 55.032C74.6481 52.856 75.4161 51.736 76.9361 51.736C77.6881 51.736 78.4081 51.976 78.9361 52.392V55.608C78.9361 57.064 78.0721 58.072 76.8081 58.072ZM86.141 59.224C87.213 59.224 88.093 58.776 88.797 57.88H88.845L89.069 59.144L91.533 59.048V58.296L90.749 58.152C90.317 58.072 90.221 57.944 90.221 57.432V46.92L90.045 46.744L87.437 46.824L87.341 47.624L88.045 47.736C88.637 47.832 88.733 47.96 88.733 48.696V51.192C88.237 50.872 87.469 50.664 86.765 50.664C84.365 50.664 82.861 52.408 82.861 55.192C82.861 57.736 84.077 59.224 86.141 59.224ZM86.605 58.072C85.213 58.072 84.445 57 84.445 55.032C84.445 52.856 85.213 51.736 86.733 51.736C87.485 51.736 88.205 51.976 88.733 52.392V55.608C88.733 57.064 87.869 58.072 86.605 58.072ZM94.4819 49.08C95.1219 49.08 95.5699 48.632 95.5699 48.008C95.5699 47.384 95.1219 46.952 94.4819 46.952C93.8579 46.952 93.4099 47.4 93.4099 48.024C93.4099 48.648 93.8579 49.08 94.4819 49.08ZM92.5619 59H96.8659V58.232L95.9699 58.072C95.5699 58.008 95.4579 57.848 95.4579 57.32V50.92L95.2659 50.84L92.7379 50.968L92.6259 51.768L93.3939 51.88C93.8739 51.944 93.9699 52.104 93.9699 52.888V57.256C93.9699 57.864 93.8899 58.008 93.4739 58.072L92.5619 58.216V59ZM98.13 59H102.05V58.264L101.202 58.088C100.882 58.024 100.802 57.896 100.802 57.4V54.04C100.802 52.696 101.666 51.816 103.01 51.816C104.194 51.816 104.61 52.36 104.61 53.864V57.464C104.61 57.944 104.53 58.056 104.13 58.136L103.426 58.264V59H107.346V58.248L106.594 58.12C106.178 58.056 106.098 57.944 106.098 57.464V53.4C106.098 51.624 105.17 50.664 103.474 50.664C102.338 50.664 101.25 51.304 100.674 52.312H100.626L100.514 50.888L100.322 50.776L98.098 50.952L97.986 51.72L98.77 51.832C99.234 51.896 99.314 52.056 99.314 52.824V57.336C99.314 57.896 99.234 58.04 98.898 58.104L98.13 58.248V59ZM111.908 62.664C114.596 62.664 116.148 61.592 116.148 59.736C116.148 58.312 115.268 57.672 113.316 57.672H111.268C110.468 57.672 110.148 57.48 110.148 57.016C110.148 56.728 110.276 56.488 110.66 56.056C110.916 56.152 111.476 56.216 111.956 56.216C113.924 56.216 115.188 55.128 115.188 53.432C115.188 52.744 114.98 52.152 114.58 51.672C114.724 51.256 114.852 50.968 115.044 50.664L115.204 51C115.348 51.288 115.556 51.432 115.844 51.432C116.324 51.432 116.756 51 116.756 50.536C116.756 50.04 116.308 49.688 115.684 49.688C114.964 49.688 114.356 50.232 114.02 51.192C113.46 50.856 112.708 50.664 111.94 50.664C109.94 50.664 108.628 51.784 108.628 53.512C108.628 54.568 109.028 55.304 109.812 55.704V55.752C108.996 56.6 108.772 57 108.772 57.576C108.772 58.12 109.172 58.648 109.7 58.808V58.872C108.692 59.336 108.244 59.896 108.244 60.696C108.244 62.008 109.46 62.664 111.908 62.664ZM111.924 55.368C110.836 55.368 110.148 54.616 110.148 53.432C110.148 52.152 110.724 51.48 111.828 51.48C112.996 51.48 113.668 52.216 113.668 53.48C113.668 54.68 113.044 55.368 111.924 55.368ZM112.036 61.656C110.372 61.656 109.716 61.32 109.716 60.456C109.716 59.928 109.956 59.496 110.452 59.128H113.14C114.132 59.128 114.628 59.464 114.628 60.12C114.628 61.08 113.668 61.656 112.036 61.656ZM123.985 59.224C125.057 59.224 125.937 58.776 126.641 57.88H126.689L126.913 59.144L129.377 59.048V58.296L128.593 58.152C128.161 58.072 128.065 57.944 128.065 57.432V46.92L127.889 46.744L125.281 46.824L125.185 47.624L125.889 47.736C126.481 47.832 126.577 47.96 126.577 48.696V51.192C126.081 50.872 125.313 50.664 124.609 50.664C122.209 50.664 120.705 52.408 120.705 55.192C120.705 57.736 121.921 59.224 123.985 59.224ZM124.449 58.072C123.057 58.072 122.289 57 122.289 55.032C122.289 52.856 123.057 51.736 124.577 51.736C125.329 51.736 126.049 51.976 126.577 52.392V55.608C126.577 57.064 125.713 58.072 124.449 58.072ZM130.646 59H135.094V58.248L133.718 58.04C133.382 57.976 133.318 57.88 133.318 57.352V54.104C133.318 52.648 134.566 51.352 135.51 51.832C135.302 52.248 135.206 52.52 135.206 52.76C135.206 53.208 135.558 53.464 136.15 53.464C136.854 53.464 137.222 53.032 137.222 52.2C137.222 51.256 136.582 50.664 135.574 50.664C134.63 50.664 133.814 51.24 133.19 52.328H133.142L132.966 50.888L132.774 50.776L130.614 50.952L130.502 51.736L131.286 51.848C131.75 51.928 131.83 52.072 131.83 52.84V57.32C131.83 57.88 131.75 58.024 131.414 58.088L130.646 58.232V59ZM141.732 59.224C142.932 59.224 144.148 58.616 144.868 57.64L144.308 57.08C143.716 57.688 142.916 58.04 142.1 58.04C140.548 58.04 139.588 56.936 139.524 55.064H144.532C144.676 54.488 144.756 53.944 144.756 53.496C144.756 51.8 143.572 50.664 141.812 50.664C139.46 50.664 137.908 52.408 137.908 55.048C137.908 57.592 139.396 59.224 141.732 59.224ZM139.524 54.168C139.684 52.44 140.42 51.512 141.636 51.512C142.692 51.512 143.252 52.184 143.252 53.432C143.252 53.72 143.236 53.96 143.204 54.168H139.524ZM146.509 59.224H147.181L147.357 58.68C147.805 59.032 148.525 59.224 149.357 59.224C151.037 59.224 152.221 58.136 152.221 56.568C152.221 55.288 151.549 54.648 149.629 54.104C148.205 53.688 147.789 53.368 147.789 52.696C147.789 51.944 148.301 51.528 149.229 51.528C150.125 51.528 150.877 52.2 151.085 53.192L151.997 53.272L151.789 50.664H151.085L150.957 51.208C150.573 50.888 149.853 50.664 149.197 50.664C147.517 50.664 146.445 51.608 146.445 53.064C146.445 54.328 147.133 54.968 149.021 55.496C150.461 55.896 150.893 56.232 150.893 56.92C150.893 57.752 150.317 58.264 149.389 58.264C148.349 58.264 147.581 57.624 147.149 56.408L146.253 56.472L146.509 59.224ZM153.743 59.224H154.415L154.591 58.68C155.039 59.032 155.759 59.224 156.591 59.224C158.271 59.224 159.455 58.136 159.455 56.568C159.455 55.288 158.783 54.648 156.863 54.104C155.439 53.688 155.023 53.368 155.023 52.696C155.023 51.944 155.535 51.528 156.463 51.528C157.359 51.528 158.111 52.2 158.319 53.192L159.231 53.272L159.023 50.664H158.319L158.191 51.208C157.807 50.888 157.087 50.664 156.431 50.664C154.751 50.664 153.679 51.608 153.679 53.064C153.679 54.328 154.367 54.968 156.255 55.496C157.695 55.896 158.127 56.232 158.127 56.92C158.127 57.752 157.551 58.264 156.623 58.264C155.583 58.264 154.815 57.624 154.383 56.408L153.487 56.472L153.743 59.224ZM164.498 59.224C165.698 59.224 166.914 58.616 167.634 57.64L167.074 57.08C166.482 57.688 165.682 58.04 164.866 58.04C163.314 58.04 162.354 56.936 162.289 55.064H167.298C167.442 54.488 167.522 53.944 167.522 53.496C167.522 51.8 166.338 50.664 164.578 50.664C162.226 50.664 160.674 52.408 160.674 55.048C160.674 57.592 162.162 59.224 164.498 59.224ZM162.289 54.168C162.45 52.44 163.186 51.512 164.402 51.512C165.458 51.512 166.018 52.184 166.018 53.432C166.018 53.72 166.002 53.96 165.97 54.168H162.289ZM169.274 59.224H169.946L170.122 58.68C170.57 59.032 171.29 59.224 172.122 59.224C173.802 59.224 174.986 58.136 174.986 56.568C174.986 55.288 174.314 54.648 172.394 54.104C170.97 53.688 170.554 53.368 170.554 52.696C170.554 51.944 171.066 51.528 171.994 51.528C172.89 51.528 173.642 52.2 173.85 53.192L174.762 53.272L174.554 50.664H173.85L173.722 51.208C173.338 50.888 172.618 50.664 171.962 50.664C170.282 50.664 169.21 51.608 169.21 53.064C169.21 54.328 169.898 54.968 171.786 55.496C173.226 55.896 173.658 56.232 173.658 56.92C173.658 57.752 173.082 58.264 172.154 58.264C171.114 58.264 170.346 57.624 169.914 56.408L169.018 56.472L169.274 59.224Z" fill="white"/>
</svg>
