<svg width="24" height="24" viewBox="0 0 24 24" fill="none" xmlns="http://www.w3.org/2000/svg">
    <path d="M12 2C6.486 2 2 6.486 2 12C2 14.415 2.86067 16.6327 4.29133 18.3627C4.295 18.3677 4.29533 18.374 4.29933 18.3787C5.33233 19.6243 6.62967 20.5793 8.07533 21.1963C8.092 21.2033 8.10833 21.211 8.125 21.218C8.242 21.2673 8.36033 21.313 8.479 21.3577C8.52567 21.3753 8.57233 21.3933 8.61967 21.4103C8.722 21.447 8.825 21.4817 8.92867 21.515C8.995 21.5363 9.06133 21.5573 9.12833 21.5773C9.22 21.6047 9.312 21.631 9.40467 21.656C9.486 21.678 9.568 21.6983 9.65 21.718C9.733 21.738 9.81633 21.758 9.9 21.7757C9.99333 21.7957 10.0877 21.8133 10.1823 21.8307C10.2583 21.8447 10.334 21.8593 10.4107 21.8717C10.5157 21.8887 10.6213 21.902 10.7273 21.9157C10.7957 21.9243 10.8637 21.9343 10.9323 21.9417C11.0523 21.9543 11.1733 21.9633 11.2947 21.9717C11.351 21.9757 11.407 21.9817 11.4637 21.9847C11.6407 21.9947 11.8197 22 12 22C12.1803 22 12.3593 21.9947 12.537 21.9853C12.5937 21.9823 12.6497 21.9763 12.706 21.9723C12.8273 21.9637 12.9483 21.955 13.0683 21.9423C13.137 21.935 13.205 21.925 13.2733 21.9163C13.3793 21.9027 13.485 21.8893 13.59 21.8723C13.6663 21.86 13.7423 21.8453 13.8183 21.8313C13.9127 21.814 14.007 21.7963 14.1007 21.7763C14.1843 21.7583 14.2673 21.7387 14.3507 21.7187C14.4327 21.6987 14.5147 21.6783 14.596 21.6567C14.6887 21.632 14.7807 21.6053 14.8723 21.578C14.9393 21.558 15.0057 21.537 15.072 21.5157C15.1757 21.4823 15.2787 21.4477 15.381 21.411C15.428 21.394 15.4747 21.376 15.5217 21.3583C15.6407 21.3137 15.7587 21.2677 15.8757 21.2187C15.8923 21.2117 15.9087 21.204 15.9253 21.197C17.3707 20.58 18.6683 19.625 19.7013 18.3793C19.7053 18.3747 19.7057 18.368 19.7093 18.3633C21.1393 16.6327 22 14.415 22 12C22 6.486 17.514 2 12 2ZM16.0523 20.4067C16.0473 20.409 16.0427 20.4117 16.0377 20.414C15.9187 20.4713 15.7977 20.5253 15.6757 20.578C15.648 20.5897 15.6207 20.6017 15.593 20.6133C15.4863 20.658 15.3783 20.7003 15.2697 20.741C15.2243 20.758 15.179 20.7747 15.1333 20.7907C15.037 20.825 14.9403 20.858 14.8427 20.8893C14.782 20.9087 14.721 20.927 14.66 20.945C14.5733 20.971 14.4863 20.996 14.3983 21.0193C14.3243 21.039 14.2497 21.057 14.175 21.0747C14.0967 21.0933 14.0187 21.1123 13.9397 21.129C13.8533 21.1473 13.7663 21.163 13.6797 21.1787C13.6093 21.1917 13.5393 21.2053 13.4683 21.2167C13.3707 21.232 13.272 21.2443 13.1737 21.2567C13.1113 21.2647 13.0493 21.274 12.9863 21.2807C12.874 21.2927 12.7607 21.3003 12.6477 21.3083C12.5973 21.3117 12.5473 21.3173 12.4963 21.32C12.3313 21.3287 12.166 21.3333 12 21.3333C11.834 21.3333 11.6687 21.3287 11.504 21.32C11.4533 21.3173 11.4033 21.312 11.3527 21.3083C11.2393 21.3007 11.1263 21.2927 11.014 21.2807C10.951 21.274 10.889 21.2647 10.8267 21.2567C10.7283 21.2443 10.6297 21.232 10.532 21.2167C10.461 21.2053 10.391 21.1917 10.3207 21.1787C10.2337 21.163 10.1467 21.147 10.0607 21.129C9.98167 21.1123 9.90333 21.0933 9.82533 21.0747C9.75067 21.0567 9.676 21.039 9.602 21.0193C9.51433 20.996 9.427 20.9707 9.34033 20.945C9.27933 20.927 9.21833 20.9087 9.15767 20.8893C9.06 20.858 8.963 20.825 8.867 20.7907C8.82133 20.7743 8.776 20.7577 8.73067 20.741C8.622 20.7003 8.514 20.658 8.40733 20.6133C8.37967 20.602 8.35267 20.59 8.325 20.5783C8.203 20.526 8.082 20.4717 7.96267 20.4143C7.95767 20.412 7.953 20.4097 7.948 20.407C6.785 19.8443 5.75767 19.0457 4.924 18.0757C5.56833 15.703 7.39233 13.7903 9.739 13.0293C9.78533 13.0577 9.83367 13.083 9.88133 13.1097C9.90933 13.1253 9.937 13.142 9.96533 13.157C10.0647 13.2097 10.1653 13.259 10.2683 13.3033C10.3473 13.338 10.429 13.3673 10.5103 13.3973C10.5263 13.403 10.5423 13.4093 10.5583 13.415C11.0103 13.575 11.494 13.6667 12 13.6667C12.506 13.6667 12.9897 13.575 13.4413 13.415C13.4573 13.4093 13.4733 13.403 13.4893 13.3973C13.5707 13.3673 13.6523 13.338 13.7313 13.3033C13.8343 13.259 13.935 13.2097 14.0343 13.157C14.0627 13.1417 14.0903 13.1253 14.1183 13.1097C14.166 13.083 14.2147 13.0577 14.2613 13.029C16.608 13.7903 18.4317 15.703 19.0763 18.0753C18.2427 19.045 17.2153 19.8437 16.0523 20.4067ZM8.33333 9.33333C8.33333 7.31167 9.97833 5.66667 12 5.66667C14.0217 5.66667 15.6667 7.31167 15.6667 9.33333C15.6667 10.6193 14.9997 11.751 13.9947 12.4057C13.8633 12.491 13.7267 12.5673 13.5863 12.634C13.5697 12.642 13.5533 12.6503 13.5367 12.658C12.5713 13.097 11.4287 13.097 10.4633 12.658C10.4467 12.6503 10.43 12.642 10.4137 12.634C10.273 12.5673 10.1367 12.491 10.0053 12.4057C9.00033 11.751 8.33333 10.6193 8.33333 9.33333ZM19.5763 17.441C18.8207 15.2097 17.0967 13.4063 14.894 12.5497C15.775 11.756 16.3333 10.61 16.3333 9.33333C16.3333 6.944 14.3893 5 12 5C9.61067 5 7.66667 6.944 7.66667 9.33333C7.66667 10.61 8.225 11.756 9.10633 12.5497C6.90367 13.4067 5.17967 15.2097 4.424 17.441C3.31967 15.908 2.66667 14.0293 2.66667 12C2.66667 6.85367 6.85367 2.66667 12 2.66667C17.1463 2.66667 21.3333 6.85367 21.3333 12C21.3333 14.0293 20.6803 15.908 19.5763 17.441Z" fill="white" stroke="white" stroke-width="0.5"/>
</svg>
