<svg width="73" height="52" viewBox="0 0 73 52" fill="none" xmlns="http://www.w3.org/2000/svg">
    <path opacity="0.7" d="M71.0903 7.99681C70.2538 4.87038 67.8021 2.40586 64.6929 1.56401C59.0129 0.00146484 36.2921 0.00146484 36.2921 0.00146484C36.2921 0.00146484 13.5722 0.00146484 7.89213 1.50477C4.84276 2.34573 2.33122 4.87083 1.49478 7.99681C0 13.7071 0 25.5496 0 25.5496C0 25.5496 0 37.4517 1.49478 43.1024C2.33211 46.2284 4.78295 48.6929 7.89257 49.5347C13.632 51.0977 36.293 51.0977 36.293 51.0977C36.293 51.0977 59.0129 51.0977 64.6929 49.5944C67.8026 48.753 70.2538 46.2885 71.0912 43.1625C72.5855 37.4517 72.5855 25.6097 72.5855 25.6097C72.5855 25.6097 72.6453 13.7071 71.0903 7.99681ZM29.0583 36.4901V14.6091L47.9517 25.5496L29.0583 36.4901Z" fill="black"/>
    <path opacity="0.7" d="M29.0586 36.4925V14.6116L47.952 25.5521L29.0586 36.4925Z" fill="white"/>
</svg>
