<svg width="113" height="32" viewBox="0 0 113 32" fill="none" xmlns="http://www.w3.org/2000/svg">
    <path fill-rule="evenodd" clip-rule="evenodd" d="M112.331 0.128333L112.331 0.128913V0.128931V0.12895V0.128969V0.128988V0.129007V0.129027V0.129046V0.129065V0.129085V0.129104V0.129123C112.34 0.210602 112.349 0.291723 112.349 0.371782C112.349 2.41314 112.349 4.45449 112.349 6.49585C112.35 11.2576 112.35 16.0194 112.358 20.7812C112.358 21.0902 112.247 21.2423 111.986 21.3702C110.902 21.9038 109.753 22.0897 108.558 22.0631C107.511 22.0414 106.513 21.8265 105.567 21.3678C105.302 21.2399 105.205 21.0781 105.205 20.7739C105.217 16.088 105.217 11.4021 105.205 6.71622C105.205 6.43618 105.294 6.28408 105.536 6.17303C107.098 5.4512 108.706 5.22185 110.383 5.70468C110.406 5.71179 110.43 5.71367 110.459 5.71609C110.47 5.71696 110.482 5.7179 110.494 5.71917V0C111.103 0.00482834 111.711 0.00482834 112.32 0.00482834C112.323 0.0460266 112.327 0.0872248 112.331 0.128333ZM110.494 13.7608C110.494 13.3176 110.494 12.8746 110.494 12.4317C110.493 10.8814 110.492 9.33185 110.502 7.78087C110.504 7.51772 110.415 7.40909 110.171 7.34632C109.225 7.10007 108.288 7.09283 107.344 7.36322C107.127 7.42599 107.052 7.52014 107.052 7.75673C107.061 11.7667 107.061 15.7766 107.052 19.7841C107.052 20.0255 107.134 20.1124 107.351 20.1728C108.307 20.4335 109.254 20.4384 110.21 20.1704C110.432 20.1076 110.502 20.0086 110.499 19.7745C110.492 18.2714 110.493 16.7669 110.494 15.2632V15.2629V15.2627C110.494 14.762 110.494 14.2613 110.494 13.7608ZM63.0475 2.43234C62.9078 1.62331 62.7681 0.814189 62.6287 0.00477176C61.9092 0.00477176 61.1874 0.00477176 60.468 0.00235759C60.4511 0.0934575 60.434 0.184558 60.417 0.275657C60.3658 0.549097 60.3147 0.822537 60.2676 1.09598C60.0914 2.12442 59.9145 3.15346 59.7377 4.18251C59.5608 5.21154 59.384 6.24058 59.2078 7.26901L59.2065 7.27664C58.8617 9.27544 58.5169 11.2742 58.1745 13.2755L57.0592 19.8155L56.9452 20.4865L56.7308 21.7492H58.7443C58.8021 21.3561 58.8608 20.965 58.9193 20.5752C59.0538 19.6794 59.1873 18.7902 59.3068 17.8986C59.343 17.6306 59.4371 17.5703 59.6858 17.5751C60.2916 17.5839 60.8987 17.5824 61.5052 17.581C61.7326 17.5805 61.9598 17.5799 62.1869 17.5799H63.7174C63.8188 18.2616 63.9196 18.9365 64.0199 19.6076C64.1273 20.327 64.2341 21.042 64.3403 21.7564H66.3489C66.3409 21.7028 66.3332 21.6501 66.3256 21.5981L66.3256 21.598C66.301 21.4302 66.2776 21.2703 66.2499 21.1119C66.1116 20.3109 65.973 19.5101 65.8344 18.7095C65.5787 17.2323 65.323 15.7553 65.0694 14.2773C64.8605 13.0546 64.6535 11.8318 64.4465 10.609C64.2395 9.38625 64.0325 8.16347 63.8237 6.94068C63.5665 5.4382 63.3072 3.93675 63.0479 2.43499L63.0475 2.43234ZM61.3574 4.00292C61.3675 3.83906 61.378 3.66866 61.6799 3.75398C61.8611 6.23607 62.2634 8.6831 62.6663 11.134L62.6664 11.1344C62.9238 12.7001 63.1814 14.2675 63.3819 15.8466H59.6761L59.8093 15L59.8099 14.9961L59.8132 14.9755L59.8143 14.9684C59.9757 13.9422 60.1369 12.9179 60.2966 11.8921C60.3724 11.4075 60.4492 10.9229 60.5261 10.4382L60.5261 10.438L60.5262 10.4378L60.5262 10.4376L60.5262 10.4373L60.5263 10.4371L60.5263 10.4369L60.5263 10.4367L60.5264 10.4364L60.5264 10.4362L60.5264 10.436L60.5265 10.4358L60.5265 10.4355L60.5265 10.4354L60.5265 10.4353L60.5265 10.4352L60.5265 10.4351L60.5266 10.435L60.5266 10.4349L60.5266 10.4348L60.5266 10.4347L60.5266 10.4346L60.5266 10.4345L60.5266 10.4344L60.5266 10.4343C60.736 9.11417 60.9455 7.79334 61.1343 6.46992C61.2107 5.93142 61.251 5.38743 61.2913 4.84314L61.2914 4.84282C61.3109 4.57953 61.3304 4.31618 61.354 4.05333C61.3553 4.03694 61.3564 4.02019 61.3574 4.00337L61.3574 4.00292ZM8.68887 7.71799C8.29536 4.96583 7.47212 2.36819 5.97534 0.00471518H0.5V21.7733C0.922555 21.7733 1.34511 21.7727 1.76759 21.7721C3.03473 21.7703 4.30119 21.7685 5.56493 21.7829C5.8836 21.7854 6.04535 21.6719 6.19744 21.416C7.71837 18.8715 8.50297 16.0927 8.7975 13.1716C8.98098 11.3561 8.9496 9.53344 8.68887 7.71799ZM2.5617 20.0737V1.70429C2.74399 1.70429 2.92459 1.70353 3.10389 1.70277H3.10391H3.10393H3.10396H3.10397H3.10399H3.10401H3.10403H3.10405H3.10407H3.10409H3.10411H3.10413C3.63715 1.70051 4.15872 1.6983 4.67893 1.71636C4.78998 1.71878 4.94207 1.8588 4.9976 1.97226C5.63977 3.27592 6.07432 4.65441 6.3785 6.07152C6.90721 8.53156 7.02309 11.0133 6.73339 13.5144C6.48473 15.6799 5.95602 17.7658 5.03864 19.7502C4.92276 20.0013 4.78757 20.0906 4.51235 20.081C4.05693 20.0655 3.60029 20.0684 3.13372 20.0713H3.13336H3.13299H3.13262H3.13225H3.13188H3.13151H3.13114H3.13077H3.13039H3.13001H3.12962H3.12924C2.94185 20.0725 2.75286 20.0737 2.5617 20.0737ZM49.9883 0.0114228L49.988 0.00471518H48.1629C48.1581 0.0602411 48.1532 0.118181 48.1532 0.173707V21.4981C48.1532 21.5528 48.1603 21.6085 48.1673 21.6632L48.1673 21.6635C48.1711 21.6932 48.1748 21.7227 48.1774 21.7516H49.9977V21.3629V0.342699C49.9977 0.231534 49.993 0.122687 49.9883 0.0116161L49.9883 0.0114228ZM43.4409 12.1094V8.5244C43.4409 8.46031 43.438 8.39574 43.4351 8.33122V8.33117C43.4288 8.19155 43.4226 8.05217 43.4457 7.91844C43.5157 7.51286 43.3129 7.37767 42.9556 7.29317C42.1589 7.10486 41.3792 7.12176 40.597 7.36318C40.3918 7.42595 40.3193 7.5201 40.3242 7.73979C40.3345 8.2195 40.3326 8.69921 40.3306 9.18764C40.3298 9.38501 40.329 9.5838 40.329 9.78459H38.5063C38.5039 9.75392 38.5008 9.72299 38.4977 9.69189C38.4911 9.62752 38.4846 9.56242 38.4846 9.49731C38.4838 9.18268 38.4843 8.86805 38.4848 8.55352V8.55103V8.55092V8.55081V8.55071V8.5506V8.55049V8.55038V8.55028V8.55017V8.55006C38.4859 7.91966 38.487 7.28962 38.4773 6.66066C38.4749 6.43614 38.5497 6.31543 38.7429 6.21162C39.7158 5.68775 40.7587 5.46806 41.8523 5.46081C42.9822 5.45357 44.0565 5.67809 45.0608 6.21886C45.2491 6.32026 45.3263 6.43614 45.3263 6.66066C45.3191 11.4021 45.3191 16.1435 45.3239 20.8825C45.3239 21.0901 45.2636 21.2084 45.0777 21.305C44.1337 21.7975 43.1294 22.022 42.0696 22.0631C40.8674 22.1089 39.7279 21.9013 38.6487 21.3581C38.4001 21.2326 38.3011 21.0853 38.3035 20.7932C38.318 18.2825 38.3156 15.7717 38.3035 13.2586C38.3011 12.9785 38.3977 12.8361 38.6342 12.713C39.8389 12.095 41.1208 11.9042 42.4583 12.0056C42.6771 12.0207 42.8935 12.0461 43.1236 12.0731L43.1237 12.0731L43.1239 12.0732L43.1246 12.0732C43.2268 12.0852 43.3318 12.0976 43.4409 12.1094ZM40.1841 17.0054C40.1841 17.2602 40.1847 17.515 40.1852 17.7698C40.1867 18.4492 40.1881 19.1287 40.1793 19.8082C40.1769 20.0134 40.2421 20.1003 40.4352 20.1631C41.3671 20.4625 42.2941 20.4335 43.2163 20.1438C43.3129 20.1124 43.4336 19.9482 43.4336 19.8469C43.4413 18.6578 43.4421 17.4688 43.443 16.2797C43.4434 15.6002 43.4439 14.9207 43.4457 14.2411C43.4457 14.0528 43.3902 13.9563 43.2043 13.9032C42.2869 13.6328 41.3719 13.6135 40.4521 13.8911C40.2397 13.9539 40.1769 14.0553 40.1793 14.2725C40.1866 14.9551 40.1856 15.6376 40.1847 16.3212C40.1844 16.5491 40.1841 16.7772 40.1841 17.0054ZM87.1808 5.76713H85.3364C85.3364 5.9144 85.3364 6.02786 85.334 6.13891C85.334 6.95411 85.3341 7.76931 85.3341 8.5845C85.3345 12.658 85.3348 16.7315 85.3268 20.805C85.3244 21.1019 85.4306 21.2492 85.6817 21.3699C86.628 21.8286 87.6251 22.0435 88.6728 22.0676C89.8823 22.0966 91.0411 21.901 92.1347 21.3651C92.3906 21.2395 92.48 21.0802 92.48 20.7905C92.4719 16.7274 92.4723 12.6659 92.4726 8.60471V8.59403C92.4726 7.78209 92.4727 6.97016 92.4727 6.15823V5.77679H90.6186V20.0687C89.5902 20.4501 88.5666 20.4429 87.5285 20.1966C87.2485 20.1314 87.1736 19.9938 87.1736 19.709C87.1817 15.9553 87.1813 12.1999 87.181 8.44563V8.4455V8.44537V8.44524V8.44511V8.44498C87.1809 7.69394 87.1808 6.94295 87.1808 6.19202V5.76713ZM97.1151 21.7589H95.2731V21.3895C95.2731 20.5744 95.2732 19.7592 95.2732 18.944V18.9439C95.2736 14.8698 95.2739 10.7946 95.2659 6.72104C95.2659 6.44099 95.3576 6.29373 95.5966 6.17543C96.6443 5.64914 97.7621 5.4536 98.9233 5.46084C100.039 5.46808 101.108 5.67811 102.11 6.18992C102.322 6.29855 102.419 6.42892 102.419 6.68241C102.413 10.6094 102.414 14.5363 102.414 18.462V18.4758V18.476V18.4763V18.4765V18.4767V18.477V18.4772C102.414 19.4577 102.414 20.4382 102.414 21.4185V21.7468H100.558V21.3461C100.558 20.4449 100.558 19.5437 100.557 18.6425V18.6425V18.6424V18.6423V18.6423V18.6422V18.6422V18.6421C100.557 15.0363 100.556 11.4307 100.567 7.82672C100.567 7.51288 100.456 7.38976 100.181 7.32699C99.1527 7.08557 98.1387 7.08316 97.1175 7.46943C97.1151 12.2157 97.1151 16.9525 97.1151 21.7155V21.7589ZM30.1363 7.46712H31.5124C31.5124 7.64818 31.5124 7.78338 31.5075 7.9234C31.5075 8.64077 31.5076 9.35815 31.5077 10.0755V10.0802C31.508 13.6633 31.5083 17.2464 31.5003 20.8296C31.5003 21.0951 31.5872 21.2375 31.819 21.3486C32.6832 21.759 33.5982 21.9739 34.5446 22.0391C35.0926 22.0777 35.6479 22.0608 36.1959 22.0342C36.3407 22.027 36.5966 21.899 36.6039 21.8073C36.6342 21.4627 36.6302 21.1155 36.6261 20.7549C36.6246 20.6279 36.6232 20.4992 36.6232 20.3684C36.5187 20.3684 36.418 20.3704 36.3201 20.3723C36.1081 20.3763 35.9088 20.3801 35.7106 20.3636C35.3172 20.3324 34.9239 20.2928 34.5305 20.2532C34.2552 20.2255 33.9798 20.1978 33.7044 20.1729C33.422 20.1488 33.352 20.0136 33.352 19.7335C33.36 16.4279 33.3597 13.124 33.3593 9.82041V9.82038V9.82034V9.82031C33.3593 9.15983 33.3592 8.49937 33.3592 7.8389V7.45264H36.4518V5.74582H33.3471V2.99366H31.4979V5.76996H30.1363V7.46712ZM73.8352 5.61296V7.14837C73.4634 7.16779 73.0898 7.16689 72.7158 7.16598C71.7879 7.16373 70.8572 7.16148 69.9435 7.46946V21.7517H68.0967V21.3968C68.0967 20.5819 68.0968 19.7669 68.0968 18.9518V18.9517V18.9516V18.9514V18.9513V18.9512C68.0972 14.8771 68.0975 10.8019 68.0895 6.72831C68.0895 6.43137 68.1933 6.28651 68.4468 6.17063C69.3907 5.7385 70.3926 5.54295 71.4162 5.49467C71.9317 5.47036 72.4486 5.49724 72.9657 5.52413C73.1678 5.53464 73.3699 5.54515 73.572 5.55261C73.6307 5.55424 73.6882 5.57126 73.7477 5.58883C73.7763 5.5973 73.8054 5.6059 73.8352 5.61296ZM13.4061 21.7467V5.78175H11.5955V21.7467H13.4061ZM28.2027 21.7613H26.409V5.77703H28.2027V21.7613ZM13.3964 0.487549H11.5979V2.77377H13.3964V0.487549ZM26.404 0.487549H28.2026V2.77618H26.404V0.487549ZM83.0617 15.3336C83.0619 14.8126 83.0621 14.2915 83.0621 13.7704C83.0621 13.2499 83.0619 12.7293 83.0617 12.2086C83.0608 10.3866 83.06 8.56345 83.0694 6.7403C83.0718 6.4506 82.9776 6.28885 82.7241 6.16573C81.7271 5.67565 80.6697 5.4632 79.564 5.45837C78.4052 5.45355 77.2874 5.65151 76.2397 6.1778C75.9934 6.30092 75.9186 6.45784 75.9186 6.72823C75.9282 11.4141 75.9282 16.1024 75.9186 20.7884C75.9162 21.0781 76.0031 21.2398 76.259 21.3629C77.2174 21.824 78.2241 22.0437 79.2839 22.0654C80.4934 22.0896 81.6522 21.8965 82.7435 21.3509C82.9873 21.2301 83.0718 21.0756 83.0694 20.8004C83.06 18.9774 83.0608 17.1559 83.0617 15.3336ZM77.7703 7.91841V7.46455C78.8566 7.06621 79.9358 7.06138 81.0197 7.39695C81.1066 7.42592 81.1984 7.6094 81.2008 7.72045C81.2102 8.49215 81.2094 9.26239 81.2085 10.0334C81.2083 10.2538 81.208 10.4742 81.208 10.6947V19.6489V20.0713C80.1241 20.46 79.0449 20.4649 77.9634 20.1317C77.8765 20.1051 77.7944 19.9482 77.7799 19.842C77.7592 19.685 77.7632 19.5231 77.7671 19.3616C77.7687 19.297 77.7703 19.2325 77.7703 19.1684V7.91841Z" fill="white"/>
    <path fill-rule="evenodd" clip-rule="evenodd" d="M23.1805 5.98343L23.1805 5.98341L23.1805 5.98339C23.4008 5.80119 23.6218 5.61838 23.8163 5.41026C24.0867 5.12297 24.3908 5.11815 24.7481 5.15919V7.45023H23.3552V7.87271C23.3552 8.56694 23.3548 9.26103 23.3544 9.95505V9.95526V9.95547V9.95568V9.95588V9.95609C23.3531 12.2689 23.3518 14.581 23.3648 16.8945C23.3672 17.2059 23.2658 17.3797 23.0027 17.4835C22.8499 17.5437 22.6971 17.6036 22.5437 17.6635C22.5057 17.6792 22.4656 17.6956 22.4233 17.7129C22.3134 17.7576 22.2024 17.7997 22.0906 17.8399C21.8334 17.9398 21.5741 18.0402 21.311 18.142L21.3102 18.1423C21.1698 18.1967 21.0283 18.2514 20.8855 18.3068V20.4361C21.1562 20.5079 21.4244 20.575 21.6902 20.6414L21.6902 20.6414L21.6903 20.6414C21.7861 20.6653 21.8815 20.6892 21.9767 20.7132C22.2412 20.7698 22.5017 20.8382 22.7583 20.9189C22.9654 20.9769 23.1708 21.0381 23.3745 21.1048C24.4416 21.4517 24.4416 21.4833 24.4415 22.572V22.6016C24.4415 22.9088 24.4411 23.216 24.4406 23.523V23.5232V23.5235V23.5237V23.5239V23.5242C24.4393 24.4446 24.4379 25.3644 24.4488 26.2856C24.4512 26.5367 24.3667 26.667 24.1494 26.7781C22.9544 27.384 21.6846 27.6424 20.3495 27.6737C20.1954 27.6773 20.0416 27.6788 19.8884 27.678C19.7352 27.6788 19.5815 27.6773 19.4273 27.6737C18.0923 27.6424 16.8224 27.384 15.6274 26.7781C15.4101 26.667 15.3256 26.5367 15.3281 26.2856C15.3389 25.3641 15.3376 24.444 15.3362 23.5233V23.5232V23.5232V23.523L15.3362 23.5214C15.3358 23.2149 15.3353 22.9083 15.3353 22.6016V22.5793C15.3353 21.4834 15.3353 21.4525 16.4024 21.1048C16.6061 21.0381 16.8115 20.9769 17.0185 20.9189C17.2751 20.8382 17.5356 20.7698 17.8002 20.7132C17.8953 20.6892 17.9908 20.6653 18.0866 20.6414L18.0866 20.6414C18.3524 20.575 18.6207 20.5079 18.8914 20.4361V18.3068C18.7486 18.2514 18.6071 18.1967 18.4667 18.1423L18.4654 18.1418L18.4614 18.1403C18.1998 18.0391 17.942 17.9393 17.6863 17.8399C17.5745 17.7997 17.4634 17.7576 17.3535 17.7129L17.2969 17.6897C17.286 17.6852 17.2751 17.6808 17.2645 17.6764C17.2539 17.672 17.2434 17.6677 17.2331 17.6635C17.0798 17.6036 16.9269 17.5437 16.7741 17.4835C16.511 17.3797 16.4096 17.2059 16.412 16.8945C16.425 14.5809 16.4237 12.2688 16.4225 9.95596V9.95575V9.95555V9.95534L16.4224 9.94568C16.4221 9.25478 16.4217 8.56381 16.4217 7.87271V7.45023H15.0287V5.15919C15.386 5.11815 15.6902 5.12297 15.9606 5.41026C16.155 5.61838 16.376 5.80119 16.5963 5.98339L16.5963 5.98341L16.5964 5.9835L16.5965 5.98355L16.5966 5.9836C16.6774 6.05046 16.7581 6.11724 16.8374 6.18516C17.2071 5.98423 17.6307 5.81879 18.0867 5.69682C18.6704 5.53104 19.2835 5.45633 19.8884 5.45882C20.4934 5.45633 21.1065 5.53104 21.6902 5.69682C22.1461 5.8188 22.5697 5.98423 22.9394 6.18516C23.0188 6.11719 23.0996 6.05036 23.1805 5.98345L23.1805 5.98343ZM18.3916 11.8006C18.3916 12.1719 18.3922 12.5432 18.3927 12.9145C18.3941 13.9048 18.3956 14.8951 18.3868 15.8853C18.3844 16.1171 18.4544 16.2282 18.6717 16.2933C19.0777 16.4153 19.4832 16.4791 19.8884 16.4843C20.2936 16.4791 20.6991 16.4153 21.1052 16.2933C21.3224 16.2282 21.3925 16.1171 21.39 15.8853C21.3813 14.8951 21.3827 13.9049 21.3841 12.9147L21.3841 12.9109C21.3847 12.5408 21.3852 12.1707 21.3852 11.8006C21.3852 11.4656 21.3848 11.1306 21.3843 10.7957C21.383 9.79077 21.3816 8.78587 21.3925 7.78097C21.3949 7.51542 21.3007 7.41161 21.0617 7.3416C20.6689 7.22652 20.2781 7.16621 19.8884 7.16092C19.4987 7.16621 19.1079 7.22652 18.7151 7.3416C18.4761 7.41161 18.382 7.51542 18.3844 7.78097C18.3968 8.76354 18.3949 9.7461 18.393 10.7287C18.3923 11.086 18.3916 11.4433 18.3916 11.8006ZM17.566 22.5943C18.3404 22.3612 19.1143 22.2417 19.8884 22.236C20.6626 22.2417 21.4364 22.3612 22.2109 22.5943C22.4112 22.6547 22.4933 22.7561 22.4885 22.9782C22.474 23.7338 22.474 24.487 22.4885 25.2427C22.4933 25.4696 22.4016 25.5758 22.2036 25.6169C22.0521 25.6481 21.901 25.682 21.7499 25.716L21.7499 25.716L21.7499 25.716L21.7499 25.716C21.3642 25.8026 20.9788 25.8891 20.5885 25.9307C20.3545 25.956 20.1211 25.9709 19.8884 25.9753C19.6557 25.9709 19.4223 25.956 19.1883 25.9307C18.798 25.8891 18.4127 25.8026 18.027 25.716L18.027 25.716L18.027 25.716L18.027 25.716L18.0269 25.716L18.0269 25.716C17.8758 25.682 17.7247 25.6481 17.5732 25.6169C17.3753 25.5758 17.2835 25.4696 17.2884 25.2427C17.3028 24.487 17.3028 23.7338 17.2884 22.9782C17.2835 22.7561 17.3656 22.6547 17.566 22.5943ZM0.529297 23.9848H13.5948V25.274H0.529297V23.9848ZM112.638 23.9848H26.4573V25.274H112.638V23.9848ZM18.3242 29.4987C17.9911 29.3104 17.6724 29.1293 17.3393 28.9386C16.924 29.6628 16.5281 30.3581 16.1273 31.0655C16.324 31.1758 16.5157 31.2854 16.7069 31.3946C16.8418 31.4717 16.9764 31.5486 17.1123 31.6256C17.36 31.1913 17.6033 30.7642 17.846 30.3382C18.0053 30.0584 18.1644 29.7791 18.3242 29.4987ZM22.631 28.9386C22.2978 29.1293 21.9791 29.3104 21.646 29.4987C21.734 29.6531 21.8218 29.8073 21.9096 29.9613C21.9812 30.0869 22.0527 30.2125 22.1243 30.3382C22.3669 30.7642 22.6102 31.1913 22.8579 31.6256C22.9938 31.5486 23.1284 31.4717 23.2633 31.3946C23.4545 31.2854 23.6462 31.1758 23.8429 31.0655C23.4421 30.3581 23.0462 29.6628 22.631 28.9386ZM20.5331 32H19.4009V29.552H20.5331V32Z" fill="white"/>
</svg>
