<svg width="24" height="24" viewBox="0 0 24 24" fill="none" xmlns="http://www.w3.org/2000/svg">
    <path fill-rule="evenodd" clip-rule="evenodd" d="M7.36601 11.1473C6.34818 10.442 5.73808 10.0178 5.53568 9.87498C5.16669 9.62502 4.81838 9.28123 4.49108 8.84373C4.16374 8.40625 4 7.99989 4 7.6249C4 7.16066 4.1235 6.77375 4.37049 6.46421C4.61751 6.15474 4.97021 6 5.42851 6H18.5714C18.9581 6 19.293 6.13982 19.5758 6.41962C19.8585 6.69935 20 7.03569 20 7.4286C20 7.89879 19.8542 8.34821 19.5624 8.77662C19.2707 9.20521 18.9077 9.57135 18.4732 9.87479C16.2352 11.4284 14.8422 12.3957 14.2947 12.7766C14.2352 12.8183 14.1086 12.909 13.9152 13.049C13.7217 13.189 13.5611 13.3021 13.4331 13.3884C13.3051 13.4746 13.1504 13.5712 12.9688 13.6785C12.7874 13.7854 12.6161 13.866 12.4555 13.9193C12.2947 13.973 12.1459 13.9996 12.009 13.9996H12H11.991C11.8541 13.9996 11.7053 13.973 11.5446 13.9193C11.3839 13.866 11.2127 13.7855 11.0312 13.6785C10.8495 13.5714 10.6948 13.4746 10.5668 13.3884C10.4389 13.3021 10.2781 13.189 10.0847 13.049C9.89126 12.9091 9.76482 12.8183 9.70531 12.7766C9.16364 12.3957 8.38388 11.8526 7.36601 11.1473ZM14.6607 13.9102C15.6725 13.178 17.1548 12.1511 19.107 10.8298C19.4465 10.5978 19.744 10.3387 20 10.0531V17.1421C20 17.5353 19.8602 17.8713 19.5804 18.1512C19.3006 18.431 18.9643 18.5709 18.5715 18.5709H5.4286C5.03572 18.5709 4.69935 18.431 4.41962 18.1512C4.13982 17.8714 4 17.5352 4 17.1421V10.0531C4.26191 10.3447 4.5625 10.6038 4.90188 10.8298C7.0566 12.2941 8.53574 13.321 9.33936 13.9102C9.67861 14.1601 9.95393 14.3552 10.1652 14.495C10.3765 14.6349 10.6578 14.7777 11.0089 14.9235C11.36 15.0695 11.6875 15.1423 11.991 15.1423H12H12.0091C12.3127 15.1423 12.64 15.0695 12.9911 14.9235C13.3424 14.7777 13.6235 14.6349 13.8349 14.495C14.0462 14.3552 14.3215 14.1601 14.6607 13.9102Z" fill="white"/>
</svg>
