<svg width="40" height="40" viewBox="0 0 40 40" fill="none" xmlns="http://www.w3.org/2000/svg">
    <rect width="40" height="40" rx="20" fill="#33A4D5"/>
    <path fill-rule="evenodd" clip-rule="evenodd" d="M23.1718 13.6003H16.8296C15.049 13.6003 13.6006 15.0489 13.6006 16.8293V23.1715C13.6006 24.9521 15.049 26.4003 16.8296 26.4003H23.1718C24.9524 26.4003 26.4006 24.9521 26.4006 23.1715V16.8293C26.4006 15.0489 24.9524 13.6003 23.1718 13.6003ZM25.0078 23.1715C25.0078 24.1839 24.184 25.0076 23.1718 25.0076H16.8296C15.8173 25.0076 14.9936 24.1839 14.9936 23.1715V16.8293C14.9936 15.817 15.8173 14.9935 16.8296 14.9935H23.1718C24.184 14.9935 25.0078 15.817 25.0078 16.8293V23.1715ZM23.4031 17.3858C22.9729 17.3858 22.6229 17.0359 22.6229 16.6057C22.6229 16.1757 22.9729 15.8259 23.4031 15.8259C23.8333 15.8259 24.1832 16.1757 24.1832 16.6057C24.1832 17.0359 23.8333 17.3858 23.4031 17.3858ZM16.7041 20.0002C16.7041 18.1825 18.183 16.7038 20.0005 16.7038C21.8184 16.7038 23.2973 18.1827 23.2973 20.0002C23.2973 21.8179 21.8184 23.2968 20.0005 23.2968C18.183 23.2968 16.7041 21.8179 16.7041 20.0002ZM18.0969 20.0002C18.0969 21.0499 18.9514 21.9042 20.0005 21.9042C21.0502 21.9042 21.9041 21.0499 21.9041 20.0002C21.9041 18.9509 21.0502 18.097 20.0005 18.097C18.9514 18.097 18.0969 18.9509 18.0969 20.0002Z" fill="white"/>
</svg>
