<svg width="190" height="69" viewBox="0 0 190 69" fill="none" xmlns="http://www.w3.org/2000/svg">
    <path d="M5.433 21H11.608V20.088L10.107 19.86C9.575 19.765 9.461 19.613 9.461 18.986V8.745H10.525C12.368 8.745 12.862 9.22 13.679 11.747L14.724 11.5L14.021 7.7H3.039L2.298 11.5L3.324 11.747C4.16 9.22 4.673 8.745 6.535 8.745H7.58V18.91C7.58 19.556 7.428 19.784 6.953 19.86L5.433 20.088V21ZM26.8703 21.266C27.6303 21.266 28.2573 21.019 28.7893 20.506L28.5993 19.822C28.2003 19.955 27.9723 19.993 27.7443 19.993C26.6993 19.993 26.4143 19.214 25.8633 17.922L25.1983 16.364C24.7803 15.376 24.2483 14.901 23.2793 14.635V14.578C25.1603 14.236 26.5853 12.735 26.5853 11.101C26.5853 8.878 24.8183 7.7 21.4743 7.7H16.7053V8.612L17.7693 8.783C18.2823 8.878 18.3963 9.03 18.3963 9.676V18.948C18.3963 19.651 18.2823 19.841 17.8073 19.917L16.7053 20.088V21H22.3103V20.088L20.9803 19.936C20.4293 19.86 20.2773 19.67 20.2773 18.986V14.958C20.5243 14.92 20.7903 14.901 21.1323 14.901C22.2343 14.901 22.5573 15.186 23.1653 16.649L24.0773 18.834C24.8373 20.696 25.5023 21.266 26.8703 21.266ZM21.3413 13.989C21.0753 13.989 20.7523 13.97 20.2773 13.951V8.726H21.3413C23.5643 8.726 24.5523 9.486 24.5523 11.215C24.5523 12.982 23.3743 13.989 21.3413 13.989ZM35.9017 21.266C39.6637 21.266 42.2097 18.34 42.2097 14.008C42.2097 10.056 39.7587 7.434 36.0727 7.434C32.1587 7.434 29.6697 10.227 29.6697 14.616C29.6697 18.606 32.1587 21.266 35.9017 21.266ZM36.1297 19.993C33.3937 19.993 31.6837 17.77 31.6837 14.217C31.6837 10.664 33.1847 8.65 35.8257 8.65C38.5427 8.65 40.1387 10.778 40.1387 14.369C40.1387 18.036 38.7517 19.993 36.1297 19.993ZM44.3333 21H49.9383V20.088L48.6083 19.936C48.0573 19.879 47.9053 19.67 47.9053 18.986V15.205H49.5583C50.9263 15.205 51.0593 15.357 51.3253 17.2L52.1993 17.048V12.355L51.3253 12.469C51.0213 13.97 50.9643 14.027 49.5583 14.027H47.9053V8.726H49.8813C51.6863 8.726 52.1803 9.144 53.0353 11.443L54.0233 11.101L53.3393 7.7H44.3333V8.612L45.3973 8.783C45.9103 8.859 46.0243 9.03 46.0243 9.676V18.948C46.0243 19.651 45.9103 19.841 45.4353 19.917L44.3333 20.088V21ZM56.0227 21H61.4377V20.088L60.2787 19.917C59.7847 19.822 59.6707 19.67 59.6707 19.024V9.752C59.6707 9.068 59.7847 8.859 60.2407 8.783L61.4377 8.612V7.7H56.0227V8.612L57.1627 8.783C57.6757 8.878 57.7897 9.03 57.7897 9.676V18.948C57.7897 19.651 57.6757 19.841 57.2007 19.917L56.0227 20.088V21ZM63.8161 21H68.4901V20.088L67.4261 19.917C66.8941 19.822 66.7801 19.651 66.8181 19.024L67.3881 9.315V9.163L70.8081 18.853H72.7081L76.2611 9.182V9.334L76.8311 18.948C76.8311 19.651 76.7171 19.841 76.2421 19.917L75.0641 20.088V21H80.4791V20.088L79.3201 19.917C78.8261 19.822 78.7121 19.67 78.7121 19.024L78.1421 9.752C78.1421 9.049 78.2561 8.84 78.7121 8.783L79.9091 8.612V7.7H75.5201L72.1191 17.143L72.0431 17.333L68.7941 7.7H64.3861V8.612L65.4501 8.783C65.9441 8.878 66.0581 9.03 66.0581 9.676L65.4881 18.948C65.4501 19.518 65.4311 19.841 64.8991 19.917L63.8161 20.088V21ZM88.4857 21.266C92.2477 21.266 94.7937 18.34 94.7937 14.008C94.7937 10.056 92.3427 7.434 88.6567 7.434C84.7427 7.434 82.2537 10.227 82.2537 14.616C82.2537 18.606 84.7427 21.266 88.4857 21.266ZM88.7137 19.993C85.9777 19.993 84.2677 17.77 84.2677 14.217C84.2677 10.664 85.7687 8.65 88.4097 8.65C91.1267 8.65 92.7227 10.778 92.7227 14.369C92.7227 18.036 91.3357 19.993 88.7137 19.993ZM101.13 21H103.144L107.001 9.79C107.305 8.992 107.419 8.859 107.856 8.764L108.787 8.612V7.7H104.284V8.593L105.215 8.802C105.747 8.916 105.861 9.163 105.633 9.809L102.441 19.366H102.365L99.1921 9.695C98.9451 9.049 99.0401 8.821 99.5531 8.745L100.598 8.612V7.7H95.5821V8.669L96.3421 8.821C96.8361 8.935 96.9311 9.03 97.1971 9.771L101.13 21ZM107.213 21H111.811V20.107L110.728 19.955C110.177 19.841 110.063 19.575 110.291 18.929L111.089 16.611H116.181L116.998 19.005C117.245 19.651 117.15 19.879 116.637 19.955L115.535 20.088V21H120.608V20.05L119.829 19.898C119.297 19.765 119.24 19.594 118.993 18.929L115.022 7.7H113.008L108.999 18.91C108.695 19.708 108.581 19.841 108.125 19.936L107.213 20.088V21ZM111.469 15.528L113.635 9.277H113.711L115.82 15.528H111.469ZM128.75 21H134.165V20.088L133.006 19.917C132.512 19.822 132.398 19.67 132.398 19.024V15.452L135.875 9.809C136.369 9.011 136.559 8.821 136.958 8.764L137.889 8.612V7.7H133.31V8.593L134.184 8.802C134.773 8.935 134.868 9.239 134.507 9.771L131.885 14.198H131.79L129.016 9.695C128.655 9.163 128.788 8.802 129.377 8.745L130.422 8.612V7.7H125.121V8.669L125.824 8.802C126.318 8.897 126.546 9.087 126.964 9.771L130.517 15.433V18.948C130.517 19.651 130.403 19.841 129.928 19.917L128.75 20.088V21ZM145.98 21.266C149.438 21.266 151.167 19.328 151.167 15.471V9.752C151.167 9.049 151.281 8.859 151.756 8.783L152.839 8.612V7.7H148.165V8.612L149.21 8.783C149.723 8.878 149.837 9.03 149.837 9.676V15.699C149.837 18.587 148.697 19.936 146.246 19.936C143.795 19.936 142.807 18.739 142.807 15.832V9.752C142.807 9.068 142.921 8.859 143.377 8.783L144.479 8.612V7.7H139.235V8.612L140.299 8.783C140.812 8.878 140.926 9.03 140.926 9.676V15.965C140.926 19.556 142.56 21.266 145.98 21.266ZM154.864 21H164.174L164.649 16.934H163.604C162.844 19.423 162.312 19.955 160.583 19.955H158.436V9.676C158.436 9.03 158.55 8.878 159.044 8.783L160.298 8.612V7.7H154.864V8.612L155.928 8.783C156.441 8.878 156.555 9.03 156.555 9.676V18.948C156.555 19.651 156.441 19.841 155.966 19.917L154.864 20.088V21ZM166.961 21H172.376V20.088L171.217 19.917C170.723 19.822 170.609 19.67 170.609 19.024V9.752C170.609 9.068 170.723 8.859 171.179 8.783L172.376 8.612V7.7H166.961V8.612L168.101 8.783C168.614 8.878 168.728 9.03 168.728 9.676V18.948C168.728 19.651 168.614 19.841 168.139 19.917L166.961 20.088V21ZM173.843 21H178.441V20.107L177.358 19.955C176.807 19.841 176.693 19.575 176.921 18.929L177.719 16.611H182.811L183.628 19.005C183.875 19.651 183.78 19.879 183.267 19.955L182.165 20.088V21H187.238V20.05L186.459 19.898C185.927 19.765 185.87 19.594 185.623 18.929L181.652 7.7H179.638L175.629 18.91C175.325 19.708 175.211 19.841 174.755 19.936L173.843 20.088V21ZM178.099 15.528L180.265 9.277H180.341L182.45 15.528H178.099Z" fill="white"/>
    <line x1="103.25" y1="36.5" x2="188.25" y2="36.5" stroke="white"/>
    <circle cx="95.25" cy="36" r="1" fill="white"/>
    <line x1="1.75" y1="36.5" x2="86.75" y2="36.5" stroke="white"/>
    <path d="M35.844 64H37.604L39.38 57.408H39.46L41.204 64H42.884L44.82 57.632C45.012 57.008 45.14 56.848 45.556 56.768L46.148 56.64V55.888H42.852L42.708 56.624L43.396 56.784C43.844 56.896 43.924 57.072 43.764 57.648L42.372 62.64H42.292L40.5 55.888H38.788L36.932 62.672H36.852L35.444 57.536C35.3 56.928 35.348 56.8 35.764 56.736L36.532 56.624V55.888H32.772L32.612 56.672L33.172 56.8C33.62 56.912 33.716 57.04 33.876 57.616L35.844 64ZM50.5913 64.224C51.7913 64.224 53.0073 63.616 53.7273 62.64L53.1673 62.08C52.5753 62.688 51.7753 63.04 50.9593 63.04C49.4073 63.04 48.4473 61.936 48.3832 60.064H53.3913C53.5353 59.488 53.6153 58.944 53.6153 58.496C53.6153 56.8 52.4313 55.664 50.6713 55.664C48.3193 55.664 46.7673 57.408 46.7673 60.048C46.7673 62.592 48.2553 64.224 50.5913 64.224ZM48.3832 59.168C48.5433 57.44 49.2793 56.512 50.4953 56.512C51.5513 56.512 52.1113 57.184 52.1113 58.432C52.1113 58.72 52.0953 58.96 52.0633 59.168H48.3832ZM58.3441 64.224C59.4161 64.224 60.2961 63.776 61.0001 62.88H61.0481L61.2721 64.144L63.7361 64.048V63.296L62.9521 63.152C62.5201 63.072 62.4241 62.944 62.4241 62.432V51.92L62.2481 51.744L59.6401 51.824L59.5441 52.624L60.2481 52.736C60.8401 52.832 60.9361 52.96 60.9361 53.696V56.192C60.4401 55.872 59.6721 55.664 58.9681 55.664C56.5681 55.664 55.0641 57.408 55.0641 60.192C55.0641 62.736 56.2801 64.224 58.3441 64.224ZM58.8081 63.072C57.4161 63.072 56.6481 62 56.6481 60.032C56.6481 57.856 57.4161 56.736 58.9361 56.736C59.6881 56.736 60.4081 56.976 60.9361 57.392V60.608C60.9361 62.064 60.0721 63.072 58.8081 63.072ZM68.141 64.224C69.213 64.224 70.093 63.776 70.797 62.88H70.845L71.069 64.144L73.533 64.048V63.296L72.749 63.152C72.317 63.072 72.221 62.944 72.221 62.432V51.92L72.045 51.744L69.437 51.824L69.341 52.624L70.045 52.736C70.637 52.832 70.733 52.96 70.733 53.696V56.192C70.237 55.872 69.469 55.664 68.765 55.664C66.365 55.664 64.861 57.408 64.861 60.192C64.861 62.736 66.077 64.224 68.141 64.224ZM68.605 63.072C67.213 63.072 66.445 62 66.445 60.032C66.445 57.856 67.213 56.736 68.733 56.736C69.485 56.736 70.205 56.976 70.733 57.392V60.608C70.733 62.064 69.869 63.072 68.605 63.072ZM76.4819 54.08C77.1219 54.08 77.5699 53.632 77.5699 53.008C77.5699 52.384 77.1219 51.952 76.4819 51.952C75.8579 51.952 75.4099 52.4 75.4099 53.024C75.4099 53.648 75.8579 54.08 76.4819 54.08ZM74.5619 64H78.8659V63.232L77.9699 63.072C77.5699 63.008 77.4579 62.848 77.4579 62.32V55.92L77.2659 55.84L74.7379 55.968L74.6259 56.768L75.3939 56.88C75.8739 56.944 75.9699 57.104 75.9699 57.888V62.256C75.9699 62.864 75.8899 63.008 75.4739 63.072L74.5619 63.216V64ZM80.13 64H84.05V63.264L83.202 63.088C82.882 63.024 82.802 62.896 82.802 62.4V59.04C82.802 57.696 83.666 56.816 85.01 56.816C86.194 56.816 86.61 57.36 86.61 58.864V62.464C86.61 62.944 86.53 63.056 86.13 63.136L85.426 63.264V64H89.346V63.248L88.594 63.12C88.178 63.056 88.098 62.944 88.098 62.464V58.4C88.098 56.624 87.17 55.664 85.474 55.664C84.338 55.664 83.25 56.304 82.674 57.312H82.626L82.514 55.888L82.322 55.776L80.098 55.952L79.986 56.72L80.77 56.832C81.234 56.896 81.314 57.056 81.314 57.824V62.336C81.314 62.896 81.234 63.04 80.898 63.104L80.13 63.248V64ZM93.9078 67.664C96.5958 67.664 98.1478 66.592 98.1478 64.736C98.1478 63.312 97.2678 62.672 95.3158 62.672H93.2678C92.4678 62.672 92.1478 62.48 92.1478 62.016C92.1478 61.728 92.2758 61.488 92.6598 61.056C92.9158 61.152 93.4758 61.216 93.9557 61.216C95.9238 61.216 97.1878 60.128 97.1878 58.432C97.1878 57.744 96.9798 57.152 96.5798 56.672C96.7238 56.256 96.8518 55.968 97.0438 55.664L97.2038 56C97.3478 56.288 97.5558 56.432 97.8438 56.432C98.3238 56.432 98.7558 56 98.7558 55.536C98.7558 55.04 98.3078 54.688 97.6838 54.688C96.9638 54.688 96.3558 55.232 96.0198 56.192C95.4598 55.856 94.7078 55.664 93.9398 55.664C91.9398 55.664 90.6278 56.784 90.6278 58.512C90.6278 59.568 91.0278 60.304 91.8118 60.704V60.752C90.9958 61.6 90.7718 62 90.7718 62.576C90.7718 63.12 91.1718 63.648 91.6998 63.808V63.872C90.6918 64.336 90.2438 64.896 90.2438 65.696C90.2438 67.008 91.4598 67.664 93.9078 67.664ZM93.9238 60.368C92.8358 60.368 92.1478 59.616 92.1478 58.432C92.1478 57.152 92.7238 56.48 93.8278 56.48C94.9958 56.48 95.6678 57.216 95.6678 58.48C95.6678 59.68 95.0438 60.368 93.9238 60.368ZM94.0358 66.656C92.3718 66.656 91.7158 66.32 91.7158 65.456C91.7158 64.928 91.9557 64.496 92.4518 64.128H95.1398C96.1318 64.128 96.6278 64.464 96.6278 65.12C96.6278 66.08 95.6678 66.656 94.0358 66.656ZM105.985 64.224C107.057 64.224 107.937 63.776 108.641 62.88H108.689L108.913 64.144L111.377 64.048V63.296L110.593 63.152C110.161 63.072 110.065 62.944 110.065 62.432V51.92L109.889 51.744L107.281 51.824L107.185 52.624L107.889 52.736C108.481 52.832 108.577 52.96 108.577 53.696V56.192C108.081 55.872 107.313 55.664 106.609 55.664C104.209 55.664 102.705 57.408 102.705 60.192C102.705 62.736 103.921 64.224 105.985 64.224ZM106.449 63.072C105.057 63.072 104.289 62 104.289 60.032C104.289 57.856 105.057 56.736 106.577 56.736C107.329 56.736 108.049 56.976 108.577 57.392V60.608C108.577 62.064 107.713 63.072 106.449 63.072ZM112.646 64H117.094V63.248L115.718 63.04C115.382 62.976 115.318 62.88 115.318 62.352V59.104C115.318 57.648 116.566 56.352 117.51 56.832C117.302 57.248 117.206 57.52 117.206 57.76C117.206 58.208 117.558 58.464 118.15 58.464C118.854 58.464 119.222 58.032 119.222 57.2C119.222 56.256 118.582 55.664 117.574 55.664C116.63 55.664 115.814 56.24 115.19 57.328H115.142L114.966 55.888L114.774 55.776L112.614 55.952L112.502 56.736L113.286 56.848C113.75 56.928 113.83 57.072 113.83 57.84V62.32C113.83 62.88 113.75 63.024 113.414 63.088L112.646 63.232V64ZM123.732 64.224C124.932 64.224 126.148 63.616 126.868 62.64L126.308 62.08C125.716 62.688 124.916 63.04 124.1 63.04C122.548 63.04 121.588 61.936 121.524 60.064H126.532C126.676 59.488 126.756 58.944 126.756 58.496C126.756 56.8 125.572 55.664 123.812 55.664C121.46 55.664 119.908 57.408 119.908 60.048C119.908 62.592 121.396 64.224 123.732 64.224ZM121.524 59.168C121.684 57.44 122.42 56.512 123.636 56.512C124.692 56.512 125.252 57.184 125.252 58.432C125.252 58.72 125.236 58.96 125.204 59.168H121.524ZM128.509 64.224H129.181L129.357 63.68C129.805 64.032 130.525 64.224 131.357 64.224C133.037 64.224 134.221 63.136 134.221 61.568C134.221 60.288 133.549 59.648 131.629 59.104C130.205 58.688 129.789 58.368 129.789 57.696C129.789 56.944 130.301 56.528 131.229 56.528C132.125 56.528 132.877 57.2 133.085 58.192L133.997 58.272L133.789 55.664H133.085L132.957 56.208C132.573 55.888 131.853 55.664 131.197 55.664C129.517 55.664 128.445 56.608 128.445 58.064C128.445 59.328 129.133 59.968 131.021 60.496C132.461 60.896 132.893 61.232 132.893 61.92C132.893 62.752 132.317 63.264 131.389 63.264C130.349 63.264 129.581 62.624 129.149 61.408L128.253 61.472L128.509 64.224ZM135.743 64.224H136.415L136.591 63.68C137.039 64.032 137.759 64.224 138.591 64.224C140.271 64.224 141.455 63.136 141.455 61.568C141.455 60.288 140.783 59.648 138.863 59.104C137.439 58.688 137.023 58.368 137.023 57.696C137.023 56.944 137.535 56.528 138.463 56.528C139.359 56.528 140.111 57.2 140.319 58.192L141.231 58.272L141.023 55.664H140.319L140.191 56.208C139.807 55.888 139.087 55.664 138.431 55.664C136.751 55.664 135.679 56.608 135.679 58.064C135.679 59.328 136.367 59.968 138.255 60.496C139.695 60.896 140.127 61.232 140.127 61.92C140.127 62.752 139.551 63.264 138.623 63.264C137.583 63.264 136.815 62.624 136.383 61.408L135.487 61.472L135.743 64.224ZM146.498 64.224C147.698 64.224 148.914 63.616 149.634 62.64L149.074 62.08C148.482 62.688 147.682 63.04 146.866 63.04C145.314 63.04 144.354 61.936 144.289 60.064H149.298C149.442 59.488 149.522 58.944 149.522 58.496C149.522 56.8 148.338 55.664 146.578 55.664C144.226 55.664 142.674 57.408 142.674 60.048C142.674 62.592 144.162 64.224 146.498 64.224ZM144.289 59.168C144.45 57.44 145.186 56.512 146.402 56.512C147.458 56.512 148.018 57.184 148.018 58.432C148.018 58.72 148.002 58.96 147.97 59.168H144.289ZM151.274 64.224H151.946L152.122 63.68C152.57 64.032 153.29 64.224 154.122 64.224C155.802 64.224 156.986 63.136 156.986 61.568C156.986 60.288 156.314 59.648 154.394 59.104C152.97 58.688 152.554 58.368 152.554 57.696C152.554 56.944 153.066 56.528 153.994 56.528C154.89 56.528 155.642 57.2 155.85 58.192L156.762 58.272L156.554 55.664H155.85L155.722 56.208C155.338 55.888 154.618 55.664 153.962 55.664C152.282 55.664 151.21 56.608 151.21 58.064C151.21 59.328 151.898 59.968 153.786 60.496C155.226 60.896 155.658 61.232 155.658 61.92C155.658 62.752 155.082 63.264 154.154 63.264C153.114 63.264 152.346 62.624 151.914 61.408L151.018 61.472L151.274 64.224Z" fill="white"/>
</svg>
