<svg width="24" height="24" viewBox="0 0 24 24" fill="none" xmlns="http://www.w3.org/2000/svg">
    <path d="M12 21C16.9718 21 21 16.9718 21 12C21 7.02825 16.9718 3 12 3C7.02825 3 3 7.02825 3 12C3 16.9718 7.02825 21 12 21ZM7.11825 11.805L15.7958 8.45925C16.1985 8.31375 16.5503 8.5575 16.4198 9.1665L16.4205 9.16575L14.943 16.1265C14.8335 16.62 14.5402 16.74 14.13 16.5075L11.88 14.8492L10.7947 15.8948C10.6747 16.0148 10.5735 16.116 10.341 16.116L10.5008 13.8263L14.6707 10.059C14.8523 9.89925 14.6302 9.80925 14.391 9.96825L9.23775 13.2127L7.01625 12.5197C6.534 12.3667 6.5235 12.0375 7.11825 11.805Z" fill="white"/>
</svg>
