<svg width="40" height="40" viewBox="0 0 40 40" fill="none" xmlns="http://www.w3.org/2000/svg">
    <rect width="40" height="40" rx="20" fill="#33A4D5"/>
    <path d="M25.1931 21.304C25.6707 21.8534 26.1749 22.3703 26.6033 22.9751C26.7925 23.2439 26.9717 23.5212 27.1088 23.8331C27.303 24.2765 27.1271 24.7644 26.7896 24.7909L24.6918 24.7898C24.1507 24.8426 23.7191 24.586 23.3562 24.1502C23.0657 23.8017 22.7967 23.4308 22.5174 23.0705C22.4029 22.9233 22.2831 22.7847 22.1399 22.6752C21.8536 22.4562 21.605 22.5232 21.4413 22.8751C21.2746 23.233 21.2368 23.6293 21.2205 24.0281C21.198 24.6101 21.0487 24.7631 20.5525 24.7897C19.492 24.8486 18.4856 24.6596 17.5506 24.0294C16.7264 23.4738 16.0872 22.6895 15.5308 21.8016C14.4476 20.0726 13.6181 18.1727 12.8725 16.2196C12.7047 15.7795 12.8274 15.5433 13.2396 15.535C13.924 15.5193 14.6082 15.5204 15.2934 15.5339C15.5716 15.5387 15.7557 15.7266 15.8631 16.0362C16.2334 17.1087 16.6864 18.1291 17.2551 19.0749C17.4066 19.3268 17.561 19.5786 17.7809 19.7558C18.0242 19.9521 18.2094 19.887 18.3239 19.5678C18.3965 19.3653 18.4283 19.1473 18.4447 18.9305C18.4989 18.1846 18.506 17.4399 18.4109 16.6966C18.3525 16.2327 18.1307 15.9324 17.7378 15.8446C17.5373 15.7999 17.5671 15.712 17.6642 15.5772C17.8329 15.3446 17.9914 15.1999 18.3076 15.1999H20.6785C21.0517 15.2867 21.1346 15.4842 21.1857 15.9266L21.1877 19.0291C21.1837 19.2004 21.2604 19.7086 21.5222 19.822C21.7318 19.9027 21.87 19.7052 21.9957 19.5486C22.5634 18.8389 22.9685 18.0001 23.3305 17.1315C23.4911 16.7496 23.6292 16.353 23.763 15.9567C23.8622 15.6627 24.0178 15.518 24.299 15.5244L26.5808 15.5268C26.6485 15.5268 26.7169 15.528 26.7825 15.5412C27.167 15.6184 27.2723 15.8132 27.1536 16.2555C26.9665 16.9495 26.6024 17.5278 26.2464 18.1088C25.8659 18.7291 25.4589 19.3282 25.0815 19.9521C24.7348 20.5219 24.7624 20.8091 25.1931 21.304Z" fill="white"/>
</svg>
