<svg width="24" height="24" viewBox="0 0 24 24" fill="none" xmlns="http://www.w3.org/2000/svg">
    <path d="M11.0022 2H10.9978C6.03538 2 2 6.0365 2 11C2 12.9688 2.6345 14.7935 3.71337 16.2751L2.59175 19.6186L6.05113 18.5128C7.47425 19.4555 9.17188 20 11.0022 20C15.9646 20 20 15.9624 20 11C20 6.03763 15.9646 2 11.0022 2ZM16.2391 14.7091C16.022 15.3223 15.1602 15.8307 14.4729 15.9792C14.0026 16.0794 13.3884 16.1593 11.3206 15.302C8.67575 14.2063 6.9725 11.5186 6.83975 11.3442C6.71263 11.1699 5.771 9.92112 5.771 8.62963C5.771 7.33813 6.42688 6.70925 6.69125 6.43925C6.90838 6.21763 7.26725 6.11637 7.6115 6.11637C7.72288 6.11637 7.823 6.122 7.913 6.1265C8.17737 6.13775 8.31012 6.1535 8.4845 6.57088C8.70162 7.094 9.23037 8.3855 9.29338 8.51825C9.3575 8.651 9.42163 8.831 9.33162 9.00538C9.24725 9.18538 9.173 9.26525 9.04025 9.41825C8.9075 9.57125 8.7815 9.68825 8.64875 9.8525C8.52725 9.99538 8.39 10.1484 8.543 10.4128C8.696 10.6715 9.22475 11.5344 10.0033 12.2274C11.0079 13.1217 11.8224 13.4075 12.1137 13.529C12.3309 13.619 12.5896 13.5976 12.7483 13.4289C12.9496 13.2118 13.1982 12.8518 13.4514 12.4974C13.6314 12.2431 13.8586 12.2116 14.0971 12.3016C14.3401 12.386 15.626 13.0216 15.8904 13.1532C16.1547 13.286 16.3291 13.349 16.3932 13.4604C16.4562 13.5718 16.4562 14.0949 16.2391 14.7091Z" fill="white"/>
</svg>
