<svg width="40" height="40" viewBox="0 0 40 40" fill="none" xmlns="http://www.w3.org/2000/svg">
    <rect width="40" height="40" rx="20" fill="#33A4D5"/>
    <path fill-rule="evenodd" clip-rule="evenodd" d="M14.167 10.4332C14.167 10.4898 15.1713 10.4812 15.1902 10.4245C15.2102 10.3646 15.3262 10.478 15.3262 10.5574C15.3262 10.5887 15.3425 10.6143 15.3624 10.6143C15.3824 10.6143 15.3987 10.6795 15.3987 10.7592C15.3987 10.8389 15.415 10.9041 15.4349 10.9041C15.4548 10.9041 15.4711 10.953 15.4711 11.0128C15.4711 11.0726 15.4874 11.1215 15.5073 11.1215C15.5273 11.1215 15.5436 11.1867 15.5436 11.2664C15.5436 11.3461 15.5599 11.4113 15.5798 11.4113C15.5997 11.4113 15.616 11.4602 15.616 11.52C15.616 11.5797 15.6323 11.6287 15.6522 11.6287C15.6722 11.6287 15.6885 11.6939 15.6885 11.7736C15.6885 11.8533 15.7048 11.9185 15.7247 11.9185C15.7446 11.9185 15.7609 11.9837 15.7609 12.0634C15.7609 12.1431 15.7772 12.2083 15.7972 12.2083C15.8171 12.2083 15.8334 12.2572 15.8334 12.317C15.8334 12.3767 15.8497 12.4256 15.8696 12.4256C15.8895 12.4256 15.9058 12.4908 15.9058 12.5705C15.9058 12.6502 15.9221 12.7154 15.9421 12.7154C15.962 12.7154 15.9783 12.7644 15.9783 12.8241C15.9783 12.8839 15.9946 12.9328 16.0145 12.9328C16.0344 12.9328 16.0507 12.998 16.0507 13.0777C16.0507 13.1985 16.0628 13.2226 16.1232 13.2226C16.1836 13.2226 16.1956 13.1985 16.1956 13.0777C16.1956 12.998 16.2119 12.9328 16.2319 12.9328C16.2518 12.9328 16.2681 12.8676 16.2681 12.7879C16.2681 12.7082 16.2844 12.643 16.3043 12.643C16.3242 12.643 16.3405 12.5778 16.3405 12.4981C16.3405 12.4184 16.3568 12.3532 16.3768 12.3532C16.3967 12.3532 16.413 12.3043 16.413 12.2445C16.413 12.1847 16.4293 12.1358 16.4492 12.1358C16.4692 12.1358 16.4855 12.0706 16.4855 11.9909C16.4855 11.9112 16.5018 11.846 16.5217 11.846C16.5416 11.846 16.5579 11.7808 16.5579 11.7011C16.5579 11.6214 16.5742 11.5562 16.5941 11.5562C16.6141 11.5562 16.6304 11.491 16.6304 11.4113C16.6304 11.3316 16.6467 11.2664 16.6666 11.2664C16.6865 11.2664 16.7028 11.2175 16.7028 11.1577C16.7028 11.0979 16.7191 11.049 16.739 11.049C16.759 11.049 16.7753 10.9838 16.7753 10.9041C16.7753 10.8244 16.7916 10.7592 16.8115 10.7592C16.8314 10.7592 16.8477 10.694 16.8477 10.6143V10.4694H17.536C17.9707 10.4694 18.2243 10.4827 18.2243 10.5056C18.2243 10.5256 18.208 10.5419 18.1881 10.5419C18.1682 10.5419 18.1519 10.5745 18.1519 10.6143C18.1519 10.6542 18.1356 10.6868 18.1156 10.6868C18.0957 10.6868 18.0794 10.7357 18.0794 10.7954C18.0794 10.8552 18.0631 10.9041 18.0432 10.9041C18.0233 10.9041 18.007 10.953 18.007 11.0128C18.007 11.0726 17.9907 11.1215 17.9707 11.1215C17.9508 11.1215 17.9345 11.1704 17.9345 11.2302C17.9345 11.2899 17.9182 11.3388 17.8983 11.3388C17.8784 11.3388 17.8621 11.3877 17.8621 11.4475C17.8621 11.5073 17.8458 11.5562 17.8258 11.5562C17.8059 11.5562 17.7896 11.6051 17.7896 11.6649C17.7896 11.7247 17.7733 11.7736 17.7534 11.7736C17.7335 11.7736 17.7172 11.8225 17.7172 11.8822C17.7172 11.942 17.7008 11.9909 17.6809 11.9909C17.661 11.9909 17.6447 12.0398 17.6447 12.0996C17.6447 12.1594 17.6284 12.2083 17.6085 12.2083C17.5885 12.2083 17.5722 12.2572 17.5722 12.317C17.5722 12.3767 17.5559 12.4256 17.536 12.4256C17.5161 12.4256 17.4998 12.4582 17.4998 12.4981C17.4998 12.5379 17.4835 12.5705 17.4636 12.5705C17.4436 12.5705 17.4273 12.6194 17.4273 12.6792C17.4273 12.739 17.411 12.7879 17.3911 12.7879C17.3712 12.7879 17.3549 12.8368 17.3549 12.8966C17.3549 12.9564 17.3386 13.0053 17.3187 13.0053C17.2987 13.0053 17.2824 13.0542 17.2824 13.1139C17.2824 13.1737 17.2661 13.2226 17.2462 13.2226C17.2263 13.2226 17.21 13.2715 17.21 13.3313C17.21 13.3911 17.1937 13.44 17.1738 13.44C17.1538 13.44 17.1375 13.4889 17.1375 13.5487C17.1375 13.6084 17.1212 13.6573 17.1013 13.6573C17.0814 13.6573 17.0651 13.7062 17.0651 13.766C17.0651 13.8258 17.0488 13.8747 17.0288 13.8747C17.0089 13.8747 16.9926 13.9236 16.9926 13.9834C16.9926 14.0431 16.9763 14.0921 16.9564 14.0921C16.9365 14.0921 16.9202 14.141 16.9202 14.2007C16.9202 14.2605 16.9039 14.3094 16.8839 14.3094C16.864 14.3094 16.8477 14.3583 16.8477 14.4181C16.8477 14.4779 16.8314 14.5268 16.8115 14.5268C16.7879 14.5268 16.7753 15.0581 16.7753 16.0483V17.5698H16.1232H15.4711V16.0845C15.4711 15.1185 15.4584 14.5992 15.4349 14.5992C15.415 14.5992 15.3987 14.5503 15.3987 14.4905C15.3987 14.4308 15.3824 14.3819 15.3624 14.3819C15.3425 14.3819 15.3262 14.3493 15.3262 14.3094C15.3262 14.2696 15.3099 14.237 15.29 14.237C15.2701 14.237 15.2538 14.1881 15.2538 14.1283C15.2538 14.0685 15.2375 14.0196 15.2175 14.0196C15.1976 14.0196 15.1813 13.9707 15.1813 13.9109C15.1813 13.8511 15.165 13.8022 15.1451 13.8022C15.1252 13.8022 15.1088 13.7533 15.1088 13.6936C15.1088 13.6338 15.0925 13.5849 15.0726 13.5849C15.0527 13.5849 15.0364 13.536 15.0364 13.4762C15.0364 13.4164 15.0201 13.3675 15.0002 13.3675C14.9802 13.3675 14.9639 13.3186 14.9639 13.2588C14.9639 13.1991 14.9476 13.1502 14.9277 13.1502C14.9078 13.1502 14.8915 13.1013 14.8915 13.0415C14.8915 12.9817 14.8752 12.9328 14.8553 12.9328C14.8353 12.9328 14.819 12.8839 14.819 12.8241C14.819 12.7644 14.8027 12.7154 14.7828 12.7154C14.7629 12.7154 14.7466 12.6665 14.7466 12.6068C14.7466 12.547 14.7303 12.4981 14.7104 12.4981C14.6904 12.4981 14.6741 12.4492 14.6741 12.3894C14.6741 12.3296 14.6578 12.2807 14.6379 12.2807C14.618 12.2807 14.6017 12.2318 14.6017 12.1721C14.6017 12.1123 14.5854 12.0634 14.5655 12.0634C14.5455 12.0634 14.5292 12.0145 14.5292 11.9547C14.5292 11.8949 14.5129 11.846 14.493 11.846C14.4731 11.846 14.4568 11.7971 14.4568 11.7373C14.4568 11.6776 14.4405 11.6287 14.4205 11.6287C14.4006 11.6287 14.3843 11.5797 14.3843 11.52C14.3843 11.4602 14.368 11.4113 14.3481 11.4113C14.3282 11.4113 14.3119 11.3624 14.3119 11.3026C14.3119 11.2428 14.2956 11.1939 14.2756 11.1939C14.2557 11.1939 14.2394 11.1613 14.2394 11.1215C14.2394 11.0816 14.2231 11.049 14.2032 11.049C14.1833 11.049 14.167 10.9838 14.167 10.9041C14.167 10.8244 14.1507 10.7592 14.1307 10.7592C14.1108 10.7592 14.0945 10.7266 14.0945 10.6868C14.0945 10.6469 14.0782 10.6143 14.0583 10.6143C14.0075 10.6143 14.0131 10.5127 14.0673 10.4512C14.1207 10.3905 14.167 10.3822 14.167 10.4332ZM20.1081 12.1721C20.1081 12.192 20.1896 12.2083 20.2892 12.2083C20.3888 12.2083 20.4704 12.2246 20.4704 12.2445C20.4704 12.2644 20.503 12.2807 20.5428 12.2807C20.5827 12.2807 20.6153 12.297 20.6153 12.317C20.6153 12.3369 20.6479 12.3532 20.6877 12.3532C20.7276 12.3532 20.7602 12.3695 20.7602 12.3894C20.7602 12.4093 20.785 12.4256 20.8153 12.4256C20.887 12.4256 21.2673 12.8059 21.2673 12.8777C21.2673 12.908 21.2836 12.9328 21.3036 12.9328C21.3235 12.9328 21.3398 12.9654 21.3398 13.0053C21.3398 13.0451 21.3561 13.0777 21.376 13.0777C21.3959 13.0777 21.4122 13.1592 21.4122 13.2588C21.4122 13.3585 21.4285 13.44 21.4485 13.44C21.472 13.44 21.4847 13.9471 21.4847 14.889C21.4847 15.8309 21.472 16.3381 21.4485 16.3381C21.4283 16.3381 21.4122 16.4347 21.4122 16.5554C21.4122 16.6762 21.3962 16.7728 21.376 16.7728C21.3561 16.7728 21.3398 16.8181 21.3398 16.8735C21.3398 16.9326 21.3099 16.9957 21.2673 17.0264C21.2275 17.0551 21.1949 17.1 21.1949 17.1262C21.1949 17.188 20.958 17.4249 20.8962 17.4249C20.87 17.4249 20.8251 17.4575 20.7964 17.4973C20.7657 17.5399 20.7026 17.5698 20.6435 17.5698C20.5881 17.5698 20.5428 17.5861 20.5428 17.606C20.5428 17.6259 20.4939 17.6422 20.4341 17.6422C20.3744 17.6422 20.3255 17.6585 20.3255 17.6785C20.3255 17.7007 20.1443 17.7147 19.8545 17.7147C19.5647 17.7147 19.3836 17.7007 19.3836 17.6785C19.3836 17.6585 19.3184 17.6422 19.2387 17.6422C19.159 17.6422 19.0938 17.6259 19.0938 17.606C19.0938 17.5861 19.0647 17.5698 19.0293 17.5698C18.9938 17.5698 18.9413 17.5372 18.9126 17.4973C18.8839 17.4575 18.8391 17.4249 18.8131 17.4249C18.7471 17.4249 18.4417 17.1129 18.4417 17.0454C18.4417 17.0151 18.4254 16.9902 18.4055 16.9902C18.3855 16.9902 18.3692 16.9576 18.3692 16.9177C18.3692 16.8779 18.3529 16.8453 18.333 16.8453C18.3131 16.8453 18.2968 16.7964 18.2968 16.7366C18.2968 16.6768 18.2805 16.6279 18.2605 16.6279C18.2369 16.6279 18.2243 16.0362 18.2243 14.9253C18.2243 13.8143 18.2369 13.2226 18.2605 13.2226C18.2805 13.2226 18.2968 13.1737 18.2968 13.1139C18.2968 13.0542 18.3131 13.0053 18.333 13.0053C18.3529 13.0053 18.3692 12.9727 18.3692 12.9328C18.3692 12.893 18.3855 12.8604 18.4055 12.8604C18.4254 12.8604 18.4417 12.8354 18.4417 12.8048C18.4417 12.737 18.6744 12.4981 18.7404 12.4981C18.7666 12.4981 18.8114 12.4655 18.8402 12.4256C18.8689 12.3858 18.9214 12.3532 18.9569 12.3532C18.9923 12.3532 19.0213 12.3369 19.0213 12.317C19.0213 12.297 19.0702 12.2807 19.13 12.2807C19.1898 12.2807 19.2387 12.2644 19.2387 12.2445C19.2387 12.2244 19.3353 12.2083 19.456 12.2083C19.5768 12.2083 19.6734 12.1922 19.6734 12.1721C19.6734 12.1519 19.77 12.1358 19.8907 12.1358C20.0115 12.1358 20.1081 12.1519 20.1081 12.1721ZM23.3892 12.3325C23.4328 12.3761 23.4409 12.7086 23.4409 14.4543C23.4409 16.6356 23.4404 16.6279 23.5983 16.6279C23.628 16.6279 23.6618 16.6483 23.6734 16.6732C23.6903 16.7094 23.6987 16.7094 23.7156 16.6732C23.7273 16.6483 23.7807 16.6279 23.8345 16.6279C23.8905 16.6279 23.9543 16.5971 23.9843 16.5554C24.013 16.5156 24.0582 16.483 24.0845 16.483C24.1109 16.483 24.1725 16.443 24.2214 16.3941L24.3104 16.3052V14.2929V12.2807H24.8382C25.2474 12.2807 25.3777 12.2924 25.4178 12.3325C25.4617 12.3764 25.4696 12.7782 25.4696 14.977V17.5698H24.89H24.3104V17.3162C24.3104 17.1767 24.3009 17.0626 24.2894 17.0626C24.2779 17.0626 24.2058 17.1278 24.1292 17.2075C24.0526 17.2872 23.9679 17.3524 23.9408 17.3524C23.9138 17.3524 23.8681 17.385 23.8394 17.4249C23.8107 17.4647 23.7582 17.4973 23.7227 17.4973C23.6873 17.4973 23.6583 17.5136 23.6583 17.5336C23.6583 17.5535 23.6094 17.5698 23.5496 17.5698C23.4898 17.5698 23.4409 17.5861 23.4409 17.606C23.4409 17.6277 23.296 17.6422 23.0787 17.6422C22.8613 17.6422 22.7164 17.6277 22.7164 17.606C22.7164 17.5861 22.6912 17.5698 22.6604 17.5698C22.5879 17.5698 22.4266 17.4084 22.4266 17.3359C22.4266 17.3052 22.4103 17.28 22.3904 17.28C22.3704 17.28 22.3541 17.2311 22.3541 17.1713C22.3541 17.1115 22.3378 17.0626 22.3179 17.0626C22.2941 17.0626 22.2817 16.2415 22.2817 14.6717V12.2807H22.8095C23.2187 12.2807 23.3491 12.2924 23.3892 12.3325ZM19.5013 13.2784L19.3836 13.4017V14.9424C19.3836 15.9453 19.3962 16.483 19.4198 16.483C19.4397 16.483 19.456 16.5086 19.456 16.5399C19.456 16.6131 19.5433 16.7004 19.6165 16.7004C19.6478 16.7004 19.6734 16.7167 19.6734 16.7366C19.6734 16.7565 19.7386 16.7728 19.8183 16.7728C19.898 16.7728 19.9632 16.7565 19.9632 16.7366C19.9632 16.7167 19.9884 16.7004 20.0192 16.7004C20.0499 16.7004 20.1152 16.6603 20.1641 16.6114L20.253 16.5225V14.9253V13.328L20.1641 13.2391C20.0878 13.1628 20.0428 13.1505 19.8471 13.1527C19.6364 13.1549 19.6101 13.1645 19.5013 13.2784ZM26.4839 19.2C26.4839 19.2201 26.5806 19.2362 26.7013 19.2362C26.822 19.2362 26.9187 19.2523 26.9187 19.2724C26.9187 19.2924 26.9676 19.3087 27.0273 19.3087C27.0871 19.3087 27.136 19.325 27.136 19.3449C27.136 19.3648 27.1849 19.3811 27.2447 19.3811C27.3045 19.3811 27.3534 19.3974 27.3534 19.4173C27.3534 19.4373 27.386 19.4536 27.4258 19.4536C27.4657 19.4536 27.4983 19.4699 27.4983 19.4898C27.4983 19.5097 27.5436 19.526 27.599 19.526C27.6581 19.526 27.7212 19.5559 27.7519 19.5985C27.7806 19.6383 27.8331 19.6709 27.8686 19.6709C27.904 19.6709 27.933 19.6872 27.933 19.7071C27.933 19.7271 27.959 19.7434 27.9909 19.7434C28.0228 19.7434 28.0945 19.7923 28.1504 19.8521C28.2062 19.9118 28.2701 19.9607 28.2923 19.9607C28.345 19.9607 28.8749 20.4907 28.8749 20.5434C28.8749 20.5656 28.9238 20.6294 28.9836 20.6853C29.0433 20.7411 29.0922 20.8128 29.0922 20.8447C29.0922 20.8766 29.1085 20.9026 29.1285 20.9026C29.1484 20.9026 29.1647 20.9352 29.1647 20.9751C29.1647 21.0149 29.181 21.0475 29.2009 21.0475C29.2208 21.0475 29.2372 21.0801 29.2372 21.12C29.2372 21.1598 29.2535 21.1924 29.2734 21.1924C29.2933 21.1924 29.3096 21.225 29.3096 21.2649C29.3096 21.3047 29.3259 21.3373 29.3458 21.3373C29.3658 21.3373 29.3821 21.3862 29.3821 21.446C29.3821 21.5058 29.3984 21.5547 29.4183 21.5547C29.4382 21.5547 29.4545 21.6036 29.4545 21.6634C29.4545 21.7231 29.4708 21.7721 29.4907 21.7721C29.5107 21.7721 29.527 21.8536 29.527 21.9532C29.527 22.0528 29.5433 22.1343 29.5632 22.1343C29.5869 22.1343 29.5994 22.7864 29.5994 24.0181C29.5994 25.2498 29.5869 25.9019 29.5632 25.9019C29.5433 25.9019 29.527 25.9834 29.527 26.083C29.527 26.1826 29.5107 26.2641 29.4907 26.2641C29.4708 26.2641 29.4545 26.313 29.4545 26.3728C29.4545 26.4326 29.4382 26.4815 29.4183 26.4815C29.3984 26.4815 29.3821 26.5304 29.3821 26.5902C29.3821 26.6499 29.3658 26.6988 29.3458 26.6988C29.3259 26.6988 29.3096 26.7314 29.3096 26.7713C29.3096 26.8111 29.2933 26.8437 29.2734 26.8437C29.2535 26.8437 29.2372 26.8764 29.2372 26.9162C29.2372 26.9561 29.2208 26.9887 29.2009 26.9887C29.181 26.9887 29.1647 27.0213 29.1647 27.0611C29.1647 27.101 29.1484 27.1336 29.1285 27.1336C29.1085 27.1336 29.0922 27.1596 29.0922 27.1915C29.0922 27.2233 29.0433 27.2951 28.9836 27.3509C28.9238 27.4067 28.8749 27.4706 28.8749 27.4928C28.8749 27.5455 28.345 28.0754 28.2923 28.0754C28.2701 28.0754 28.2062 28.1244 28.1504 28.1841C28.0945 28.2439 28.0228 28.2928 27.9909 28.2928C27.959 28.2928 27.933 28.3091 27.933 28.329C27.933 28.349 27.904 28.3653 27.8686 28.3653C27.8331 28.3653 27.7806 28.3979 27.7519 28.4377C27.7212 28.4802 27.6581 28.5102 27.599 28.5102C27.5436 28.5102 27.4983 28.5265 27.4983 28.5464C27.4983 28.5663 27.4657 28.5826 27.4258 28.5826C27.386 28.5826 27.3534 28.5989 27.3534 28.6188C27.3534 28.6388 27.3045 28.6551 27.2447 28.6551C27.1849 28.6551 27.136 28.6714 27.136 28.6913C27.136 28.7112 27.0871 28.7275 27.0273 28.7275C26.9676 28.7275 26.9187 28.7438 26.9187 28.7637C26.9187 28.7839 26.822 28.8 26.7013 28.8C26.5806 28.8 26.4839 28.8161 26.4839 28.8362C26.4839 28.8602 24.2983 28.8724 19.9994 28.8724C15.7005 28.8724 13.5149 28.8602 13.5149 28.8362C13.5149 28.8161 13.4183 28.8 13.2975 28.8C13.1768 28.8 13.0802 28.7839 13.0802 28.7637C13.0802 28.7438 13.0313 28.7275 12.9715 28.7275C12.9117 28.7275 12.8628 28.7112 12.8628 28.6913C12.8628 28.6714 12.8139 28.6551 12.7541 28.6551C12.6944 28.6551 12.6455 28.6388 12.6455 28.6188C12.6455 28.5989 12.5965 28.5826 12.5368 28.5826C12.477 28.5826 12.4281 28.5663 12.4281 28.5464C12.4281 28.5265 12.3955 28.5102 12.3556 28.5102C12.3158 28.5102 12.2832 28.4939 12.2832 28.4739C12.2832 28.454 12.2542 28.4377 12.2187 28.4377C12.1833 28.4377 12.1308 28.4051 12.1021 28.3653C12.0733 28.3254 12.0244 28.2928 11.9934 28.2928C11.9623 28.2928 11.9134 28.2602 11.8847 28.2204C11.856 28.1805 11.8114 28.1479 11.7856 28.1479C11.7285 28.1479 11.1239 27.5493 11.1239 27.4927C11.1239 27.4706 11.075 27.4067 11.0153 27.3509C10.9555 27.2951 10.9066 27.2233 10.9066 27.1915C10.9066 27.1596 10.8903 27.1336 10.8704 27.1336C10.8504 27.1336 10.8341 27.101 10.8341 27.0611C10.8341 27.0213 10.8178 26.9887 10.7979 26.9887C10.778 26.9887 10.7617 26.9561 10.7617 26.9162C10.7617 26.8764 10.7454 26.8437 10.7255 26.8437C10.7055 26.8437 10.6892 26.8111 10.6892 26.7713C10.6892 26.7314 10.6729 26.6988 10.653 26.6988C10.6331 26.6988 10.6168 26.6662 10.6168 26.6264C10.6168 26.5865 10.6005 26.5539 10.5805 26.5539C10.5606 26.5539 10.5443 26.4887 10.5443 26.409C10.5443 26.3293 10.528 26.2641 10.5081 26.2641C10.4882 26.2641 10.4719 26.1989 10.4719 26.1192C10.4719 26.0395 10.4556 25.9743 10.4356 25.9743C10.4119 25.9743 10.3994 25.2981 10.3994 24.0181C10.3994 22.7381 10.4119 22.0619 10.4356 22.0619C10.4556 22.0619 10.4719 21.9967 10.4719 21.917C10.4719 21.8373 10.4882 21.7721 10.5081 21.7721C10.528 21.7721 10.5443 21.7068 10.5443 21.6271C10.5443 21.5474 10.5606 21.4822 10.5805 21.4822C10.6005 21.4822 10.6168 21.4496 10.6168 21.4098C10.6168 21.3699 10.6331 21.3373 10.653 21.3373C10.6729 21.3373 10.6892 21.3047 10.6892 21.2649C10.6892 21.225 10.7055 21.1924 10.7255 21.1924C10.7454 21.1924 10.7617 21.1598 10.7617 21.12C10.7617 21.0801 10.778 21.0475 10.7979 21.0475C10.8178 21.0475 10.8341 21.0149 10.8341 20.9751C10.8341 20.9352 10.8504 20.9026 10.8704 20.9026C10.8903 20.9026 10.9066 20.8766 10.9066 20.8447C10.9066 20.8128 10.9555 20.7411 11.0153 20.6853C11.075 20.6294 11.1239 20.5656 11.1239 20.5434C11.1239 20.4868 11.7285 19.8883 11.7856 19.8883C11.8114 19.8883 11.856 19.8557 11.8847 19.8158C11.9134 19.776 11.9623 19.7434 11.9934 19.7434C12.0244 19.7434 12.0733 19.7108 12.1021 19.6709C12.1308 19.6311 12.1833 19.5985 12.2187 19.5985C12.2542 19.5985 12.2832 19.5822 12.2832 19.5622C12.2832 19.5423 12.3158 19.526 12.3556 19.526C12.3955 19.526 12.4281 19.5097 12.4281 19.4898C12.4281 19.4699 12.477 19.4536 12.5368 19.4536C12.5965 19.4536 12.6455 19.4373 12.6455 19.4173C12.6455 19.3974 12.6944 19.3811 12.7541 19.3811C12.8139 19.3811 12.8628 19.3648 12.8628 19.3449C12.8628 19.325 12.9117 19.3087 12.9715 19.3087C13.0313 19.3087 13.0802 19.2924 13.0802 19.2724C13.0802 19.2523 13.1768 19.2362 13.2975 19.2362C13.4183 19.2362 13.5149 19.2201 13.5149 19.2C13.5149 19.176 15.7005 19.1637 19.9994 19.1637C24.2983 19.1637 26.4839 19.176 26.4839 19.2ZM13.1526 20.9026V21.3373H13.6805C14.0897 21.3373 14.22 21.349 14.2601 21.3891C14.304 21.433 14.3119 21.8493 14.3119 24.1423V26.8437H14.819H15.3262V24.0905V21.3373H15.8696H16.413V20.9388C16.413 20.6973 16.4273 20.5404 16.4492 20.5404C16.4692 20.5404 16.4855 20.5241 16.4855 20.5041C16.4855 20.4805 15.9058 20.4679 14.819 20.4679H13.1526V20.9026ZM20.3979 23.6558V26.8437H20.8688H21.3398V26.6626C21.3398 26.563 21.3495 26.4815 21.3615 26.4815C21.3734 26.4815 21.4289 26.5304 21.4847 26.5902C21.5405 26.6499 21.6123 26.6988 21.6441 26.6988C21.676 26.6988 21.7021 26.7151 21.7021 26.7351C21.7021 26.755 21.7347 26.7713 21.7745 26.7713C21.8144 26.7713 21.847 26.7876 21.847 26.8075C21.847 26.8274 21.9122 26.8437 21.9919 26.8437C22.0716 26.8437 22.1368 26.8601 22.1368 26.88C22.1368 26.8999 22.202 26.9162 22.2817 26.9162C22.3614 26.9162 22.4266 26.8999 22.4266 26.88C22.4266 26.8601 22.4882 26.8437 22.5635 26.8437C22.6588 26.8437 22.7163 26.8218 22.7526 26.7713C22.7814 26.7314 22.8338 26.6988 22.8693 26.6988C22.9069 26.6988 22.9338 26.672 22.9338 26.6344C22.9338 26.5989 22.9664 26.5464 23.0062 26.5177C23.0487 26.487 23.0787 26.4239 23.0787 26.3648C23.0787 26.3094 23.095 26.2641 23.1149 26.2641C23.1385 26.2641 23.1511 25.6603 23.1511 24.5253C23.1511 23.3902 23.1385 22.7864 23.1149 22.7864C23.095 22.7864 23.0787 22.7375 23.0787 22.6777C23.0787 22.6179 23.0624 22.569 23.0424 22.569C23.0225 22.569 23.0062 22.544 23.0062 22.5135C23.0062 22.4414 22.7716 22.2068 22.6995 22.2068C22.6689 22.2068 22.6439 22.1905 22.6439 22.1705C22.6439 22.1506 22.595 22.1343 22.5353 22.1343C22.4755 22.1343 22.4266 22.118 22.4266 22.0981C22.4266 22.0782 22.3451 22.0619 22.2455 22.0619C22.1458 22.0619 22.0643 22.0782 22.0643 22.0981C22.0643 22.118 22.0154 22.1343 21.9556 22.1343C21.8959 22.1343 21.847 22.1506 21.847 22.1705C21.847 22.1905 21.8212 22.2068 21.7898 22.2068C21.7583 22.2068 21.67 22.272 21.5934 22.3517C21.3374 22.6181 21.3398 22.6262 21.3398 21.4822V20.4679H20.8688H20.3979V23.6558ZM25.0349 22.0256C25.0349 22.0456 24.9534 22.0619 24.8538 22.0619C24.7541 22.0619 24.6726 22.0782 24.6726 22.0981C24.6726 22.118 24.6237 22.1343 24.5639 22.1343C24.5042 22.1343 24.4553 22.1506 24.4553 22.1705C24.4553 22.1905 24.4305 22.2068 24.4002 22.2068C24.37 22.2068 24.2396 22.3124 24.1104 22.4416C23.9813 22.5707 23.8756 22.7011 23.8756 22.7314C23.8756 22.7616 23.8593 22.7864 23.8394 22.7864C23.8195 22.7864 23.8032 22.8353 23.8032 22.8951C23.8032 22.9548 23.7869 23.0037 23.767 23.0037C23.7434 23.0037 23.7307 23.523 23.7307 24.489C23.7307 25.4551 23.7434 25.9743 23.767 25.9743C23.7869 25.9743 23.8032 26.0232 23.8032 26.083C23.8032 26.1428 23.8195 26.1917 23.8394 26.1917C23.8593 26.1917 23.8756 26.2243 23.8756 26.2641C23.8756 26.304 23.8919 26.3366 23.9119 26.3366C23.9318 26.3366 23.9481 26.3615 23.9481 26.3919C23.9481 26.4638 24.2556 26.7713 24.3275 26.7713C24.3579 26.7713 24.3828 26.7876 24.3828 26.8075C24.3828 26.8274 24.4154 26.8437 24.4553 26.8437C24.4951 26.8437 24.5277 26.8601 24.5277 26.88C24.5277 26.9001 24.6243 26.9162 24.7451 26.9162C24.8658 26.9162 24.9624 26.9323 24.9624 26.9524C24.9624 26.9724 25.0276 26.9887 25.1073 26.9887C25.187 26.9887 25.2522 26.9724 25.2522 26.9524C25.2522 26.9323 25.3489 26.9162 25.4696 26.9162C25.5903 26.9162 25.687 26.9001 25.687 26.88C25.687 26.8601 25.7196 26.8437 25.7594 26.8437C25.7993 26.8437 25.8319 26.8274 25.8319 26.8075C25.8319 26.7876 25.8645 26.7713 25.9043 26.7713C25.9442 26.7713 25.9768 26.755 25.9768 26.7351C25.9768 26.7151 26.002 26.6988 26.0327 26.6988C26.1052 26.6988 26.2666 26.5375 26.2666 26.465C26.2666 26.4342 26.2829 26.409 26.3028 26.409C26.3227 26.409 26.339 26.3764 26.339 26.3366C26.339 26.2967 26.3553 26.2641 26.3753 26.2641C26.3952 26.2641 26.4115 26.2152 26.4115 26.1554C26.4115 26.0957 26.4278 26.0468 26.4477 26.0468C26.4695 26.0468 26.4839 25.9019 26.4839 25.6845V25.3222H26.013H25.5421V25.6483C25.5421 25.8415 25.5273 25.9743 25.5058 25.9743C25.4859 25.9743 25.4696 26.0069 25.4696 26.0468C25.4696 26.0951 25.4454 26.1192 25.3972 26.1192C25.3573 26.1192 25.3247 26.1355 25.3247 26.1554C25.3247 26.1754 25.2343 26.1917 25.1238 26.1917C24.9588 26.1917 24.907 26.1758 24.834 26.1027C24.7851 26.0538 24.7451 25.9886 24.7451 25.9578C24.7451 25.927 24.7288 25.9019 24.7088 25.9019C24.686 25.9019 24.6726 25.6603 24.6726 25.2498V24.5977H25.5783H26.4839V23.7283C26.4839 23.1728 26.4709 22.8588 26.4477 22.8588C26.4278 22.8588 26.4115 22.8262 26.4115 22.7864C26.4115 22.7465 26.3952 22.7139 26.3753 22.7139C26.3553 22.7139 26.339 22.6813 26.339 22.6415C26.339 22.6016 26.3227 22.569 26.3028 22.569C26.2829 22.569 26.2666 22.5439 26.2666 22.5131C26.2666 22.4446 26.1069 22.2792 26.0407 22.2792C26.0144 22.2792 25.9693 22.2466 25.9405 22.2068C25.9099 22.1642 25.8468 22.1343 25.7876 22.1343C25.7323 22.1343 25.687 22.118 25.687 22.0981C25.687 22.0782 25.6055 22.0619 25.5058 22.0619C25.4062 22.0619 25.3247 22.0456 25.3247 22.0256C25.3247 22.0057 25.2595 21.9894 25.1798 21.9894C25.1001 21.9894 25.0349 22.0057 25.0349 22.0256ZM16.9202 24.2717C16.9202 25.6724 16.9327 26.409 16.9564 26.409C16.9763 26.409 16.9926 26.4503 16.9926 26.5008C16.9926 26.6028 17.2081 26.8437 17.2994 26.8437C17.3299 26.8437 17.3549 26.8601 17.3549 26.88C17.3549 26.9001 17.4515 26.9162 17.5722 26.9162C17.693 26.9162 17.7896 26.9001 17.7896 26.88C17.7896 26.8601 17.8385 26.8437 17.8983 26.8437C17.9581 26.8437 18.007 26.8274 18.007 26.8075C18.007 26.7876 18.0396 26.7713 18.0794 26.7713C18.1193 26.7713 18.1519 26.755 18.1519 26.7351C18.1519 26.7151 18.1779 26.6988 18.2098 26.6988C18.2416 26.6988 18.3134 26.6499 18.3692 26.5902C18.4251 26.5304 18.4968 26.4815 18.5287 26.4815C18.5624 26.4815 18.5866 26.4513 18.5866 26.409C18.5866 26.3607 18.6107 26.3366 18.659 26.3366C18.7246 26.3366 18.7315 26.3607 18.7315 26.5902V26.8437H19.1662H19.6009V24.489V22.1343H19.1662H18.7315V23.9287V25.7232L18.6059 25.8487C18.5368 25.9178 18.4553 25.9743 18.4248 25.9743C18.3942 25.9743 18.3692 25.9906 18.3692 26.0105C18.3692 26.0305 18.3366 26.0468 18.2968 26.0468C18.2569 26.0468 18.2243 26.0631 18.2243 26.083C18.2243 26.1537 18.0386 26.1179 17.951 26.0303L17.8621 25.9414V24.0378V22.1343H17.3911H16.9202V24.2717ZM22.0836 22.912L22.2092 23.0375V24.5059C22.2092 25.4607 22.1965 25.9743 22.173 25.9743C22.1531 25.9743 22.1368 25.9999 22.1368 26.0312C22.1368 26.1404 22.0391 26.1917 21.8314 26.1917C21.7204 26.1917 21.6296 26.1754 21.6296 26.1554C21.6296 26.1355 21.6044 26.1192 21.5736 26.1192C21.5428 26.1192 21.4776 26.0792 21.4287 26.0303L21.3398 25.9414V24.4519C21.3398 22.8839 21.3423 22.8588 21.5002 22.8588C21.5315 22.8588 21.5572 22.8425 21.5572 22.8226C21.5572 22.8027 21.6474 22.7864 21.7576 22.7864C21.938 22.7864 21.9706 22.7989 22.0836 22.912ZM25.4165 22.912L25.5421 23.0375V23.4554V23.8732H25.1073H24.6726V23.4549C24.6726 23.0592 24.6774 23.0319 24.7616 22.9478C24.8105 22.8989 24.8757 22.8588 24.9065 22.8588C24.9373 22.8588 24.9624 22.8425 24.9624 22.8226C24.9624 22.8027 25.0363 22.7864 25.1266 22.7864C25.2658 22.7864 25.3101 22.8056 25.4165 22.912Z" fill="white"/>
</svg>
