<svg width="40" height="40" viewBox="0 0 40 40" fill="none" xmlns="http://www.w3.org/2000/svg">
    <rect width="40" height="40" fill="white"/>
    <path d="M33.4828 8.51305C30.0173 5.02802 24.298 5.20126 20.9986 8.82382C17.6988 5.20139 11.9798 5.02796 8.51435 8.51311C5.06825 11.945 5.18564 17.5962 8.73632 20.9086C6.91979 22.6435 7.96045 25.7611 10.433 26.065C10.2849 27.758 11.7259 29.3106 13.4304 29.2818C13.5349 31.1456 15.4055 32.4797 17.199 31.9872C17.7874 34.2077 20.6159 34.9664 22.2386 33.3322C23.1602 32.4161 23.8931 31.8384 23.9398 30.4509C25.4626 30.4085 26.7802 29.073 26.8034 27.5511C28.3409 27.5273 29.6804 26.1874 29.704 24.6504C31.299 24.6262 32.6819 23.1866 32.6077 21.5615L33.4827 20.6866C36.839 17.3303 36.839 11.8693 33.4828 8.51305ZM10.0556 22.3095L10.8775 21.4876C11.0899 21.2752 11.3688 21.169 11.6478 21.169C12.6046 21.1627 13.104 22.3456 12.4181 23.0282L11.5962 23.85C10.5324 24.8294 9.07614 23.3737 10.0556 22.3095ZM12.3472 26.2705C12.3472 25.9795 12.4606 25.7059 12.6663 25.5002L13.4886 24.678C13.6943 24.4725 13.9677 24.3593 14.2584 24.3593C15.2233 24.3576 15.7124 25.5378 15.0287 26.219L14.3036 26.9441C14.0819 27.1954 13.7774 27.3653 13.4365 27.3599C12.8511 27.3719 12.3351 26.8561 12.3472 26.2705ZM15.6637 29.8448C15.2411 29.4393 15.2411 28.7097 15.6637 28.3042L16.3888 27.579C16.8116 27.0771 17.5538 27.0118 18.0262 27.4823C18.4509 27.9071 18.4509 28.5981 18.0262 29.0229L17.2043 29.8448C16.7795 30.2697 16.0884 30.2697 15.6637 29.8448ZM21.7004 31.1502L20.8785 31.9721C20.6728 32.1778 20.3992 32.2912 20.1083 32.2912C19.8172 32.2912 19.5437 32.1778 19.3379 31.9721C18.9154 31.5665 18.9152 30.837 19.338 30.4315L20.1597 29.6096C20.5844 29.1849 21.2756 29.1849 21.7003 29.6096C22.123 30.0151 22.123 30.7447 21.7004 31.1502ZM30.3662 22.4119C29.9607 22.8344 29.2311 22.8345 28.8257 22.4119L24.5455 18.1317L23.1854 19.4918L27.4656 23.7719C27.8903 24.1967 27.8903 24.8878 27.4656 25.3125C27.0408 25.7374 26.3498 25.7373 25.925 25.3125L21.7174 21.1049L21.6448 21.0323L20.2847 22.3924L20.3573 22.465L24.5649 26.6726C24.9897 27.0974 24.9897 27.7885 24.5649 28.2133C24.1401 28.638 23.449 28.638 23.0243 28.2133L23.0234 28.2141C22.2419 27.4585 21.1497 27.2098 20.1632 27.4678C19.8492 26.1846 18.5592 25.2131 17.262 25.2414C17.1991 23.8602 16.0314 22.6125 14.6515 22.4634C14.8336 20.0937 12.231 18.4617 10.1771 19.6291C7.31667 17.0739 7.14048 12.5884 9.87457 9.87314C12.593 7.13571 17.0845 7.31709 19.6386 10.1839L17.2608 12.5617L19.1661 14.467C20.6297 15.9308 22.8851 16.1321 24.5666 15.0714L30.3664 20.8713C30.7909 21.296 30.7909 21.9871 30.3662 22.4119ZM32.1227 19.3265L31.8296 19.6195C31.7962 19.5827 31.7618 19.5466 31.7264 19.5112L24.6422 12.4269L23.9621 13.107C23.0149 14.0542 21.4735 14.0543 20.5261 13.107L19.9809 12.5617L22.6694 9.87314C29.2004 3.86207 38.1325 12.7998 32.1227 19.3265Z" fill="#085F97"/>
</svg>
