<svg width="20" height="20" viewBox="0 0 20 20" fill="none" xmlns="http://www.w3.org/2000/svg">
    <path fill-rule="evenodd" clip-rule="evenodd" d="M9.72174 19.3035C9.70646 19.3055 9.69099 19.3065 9.67541 19.3065C9.65284 19.3065 9.63048 19.3043 9.6086 19.3002C9.55007 19.2891 9.49576 19.2637 9.44973 19.227C9.42893 19.2105 9.40967 19.1916 9.39234 19.1705L0.892959 8.73671C0.794662 8.61601 0.778402 8.4449 0.851571 8.30741L3.82699 2.70833C3.8684 2.62484 3.93932 2.55699 4.03118 2.52327C4.08248 2.50384 4.13498 2.49701 4.1857 2.50117H9.66664L9.6747 2.50108H9.67543L9.68354 2.50117H15.1767C15.2238 2.49871 15.2724 2.50566 15.3198 2.52327C15.4168 2.55873 15.4904 2.63191 15.5307 2.72133L18.4985 8.30741C18.5724 8.44567 18.5554 8.61601 18.4571 8.73671L9.96943 19.1562C9.90998 19.2368 9.82108 19.2906 9.72174 19.3035ZM8.64317 17.0645L5.86598 8.99404H2.06971L8.64317 17.0645ZM6.65049 8.99404H12.7005L9.67551 17.7848L6.65049 8.99404ZM13.485 8.99404L10.708 17.0641L17.2811 8.99404H13.485ZM13.7482 8.2293L15.2679 3.81305L17.6143 8.23016H13.7486C13.7485 8.22987 13.7483 8.22959 13.7482 8.2293ZM14.672 3.26505L13.2295 7.45683L10.3856 3.26505H14.672ZM6.12987 7.48112L4.67906 3.26505H8.96815L6.12987 7.48112ZM4.08303 3.81282L5.60312 8.23016H1.7365L4.08303 3.81282ZM12.8521 8.23016H6.52534L9.67691 3.54988L12.8521 8.23016Z" fill="#085F97" stroke="#085F97" stroke-width="0.5"/>
</svg>
