<svg width="28" height="28" viewBox="0 0 28 28" fill="none" xmlns="http://www.w3.org/2000/svg">
    <path fill-rule="evenodd" clip-rule="evenodd" d="M14 28C6.26801 28 0 21.732 0 14C0 6.26801 6.26801 0 14 0C21.732 0 28 6.26801 28 14C28 21.732 21.732 28 14 28ZM22.592 9.45138L22.5974 9.47286C23.1342 11.9245 23.1342 14.4107 22.5974 16.8624L22.592 16.8838C22.1577 18.6393 20.2 20.5231 18.4022 20.915L18.3819 20.9192C16.9282 21.1965 15.4638 21.3349 14 21.3349C13.5691 21.3349 13.1383 21.3215 12.7077 21.2974L10.7222 23.3612C10.2307 23.873 9.36638 23.5247 9.36638 22.8154V20.8558C7.63564 20.3616 5.82371 18.5644 5.40741 16.8838L5.40264 16.8623C4.86579 14.4107 4.86579 11.9245 5.40264 9.47286L5.40741 9.45138C5.84226 7.69588 7.79997 5.81214 9.59723 5.42023L9.61811 5.41606C12.5255 4.86131 15.474 4.86131 18.3819 5.41606L18.4022 5.42023C20.2 5.81214 22.1577 7.69588 22.592 9.45138ZM18.0687 19.339C19.2498 19.0759 20.7363 17.6521 21.0262 16.5068C21.5099 14.2908 21.5099 12.0444 21.0262 9.82831C20.7363 8.68303 19.2504 7.25919 18.0687 6.99613C15.369 6.48254 12.631 6.48254 9.93067 6.99613C8.7496 7.25919 7.26372 8.68303 6.97322 9.82831C6.49006 12.0443 6.49006 14.2907 6.97322 16.5067C7.26372 17.652 8.7496 19.0759 9.93067 19.3389L9.93157 19.3391C9.98424 19.3494 10.0225 19.395 10.0225 19.4486V22.6949C10.0225 22.8571 10.2206 22.9371 10.3333 22.8196L11.8753 21.237L13.3249 19.7489C13.3465 19.7267 13.3763 19.7147 13.4073 19.7155C14.9641 19.7587 16.5225 19.633 18.0687 19.339ZM16.3959 17.956C16.4525 17.9716 16.5101 17.9875 16.5687 18.0053C16.6185 17.9899 16.6693 17.977 16.7198 17.9641L16.7199 17.9641L16.7199 17.9641L16.7199 17.9641L16.72 17.9641C16.8295 17.9362 16.938 17.9086 17.0338 17.8572C17.5296 17.5909 17.8733 17.1736 18.1095 16.6721C18.2385 16.3982 18.1596 16.1335 17.9305 15.9317C17.7086 15.7363 17.4703 15.5667 17.2299 15.3956L17.2299 15.3956L17.1766 15.3577C16.9135 15.1702 16.6487 14.9846 16.3755 14.8117C16.1025 14.6389 15.7785 14.6417 15.525 14.8489C15.4334 14.9238 15.3593 15.0228 15.2854 15.1215C15.1498 15.3025 15.0151 15.4823 14.7757 15.5103C14.5743 15.5338 14.3965 15.4587 14.2214 15.3848L14.1701 15.3633C12.9713 14.8645 12.2408 13.9383 11.8074 12.7472C11.751 12.5924 11.7552 12.4246 11.8427 12.2823C11.8905 12.2045 11.9562 12.1464 12.026 12.089L12.0727 12.0502C12.1364 11.9971 12.2002 11.9439 12.2688 11.8973C12.6203 11.6585 12.6735 11.2296 12.4795 10.8788C12.1642 10.3083 11.7747 9.79104 11.3507 9.29892C11.1546 9.0713 10.8897 8.99691 10.6211 9.12594C10.2771 9.29123 9.95939 9.51551 9.7125 9.80857C9.44938 10.1208 9.19951 10.549 9.36915 10.9635L9.42677 11.1044L9.42677 11.1045L9.42679 11.1045C9.59331 11.5123 9.76013 11.9209 9.95432 12.3156C10.4111 13.2439 10.9514 14.121 11.6417 14.898C12.8556 16.2643 14.3882 17.1556 16.0534 17.8464C16.1623 17.8916 16.2768 17.9232 16.3959 17.956ZM14.0047 8.55248C16.1828 8.6135 17.9718 10.059 18.3552 12.2124C18.4124 12.5341 18.4374 12.8621 18.4622 13.189L18.4622 13.1891L18.4728 13.3268C18.485 13.4834 18.3963 13.6323 18.2273 13.6343C18.0527 13.6364 17.9741 13.4903 17.9628 13.3337C17.9582 13.2711 17.954 13.2083 17.9497 13.1456L17.9497 13.1455L17.9497 13.1455V13.1454C17.9329 12.8979 17.9161 12.6503 17.8821 12.4051C17.6566 10.7826 16.3628 9.44019 14.7478 9.15214C14.5803 9.12226 14.4102 9.10756 14.24 9.09286L14.24 9.09286L14.24 9.09286L14.2398 9.09285C14.1631 9.08621 14.0863 9.07958 14.0098 9.07156L13.9836 9.06887C13.8322 9.0536 13.6485 9.03508 13.6159 8.85234C13.587 8.69015 13.7239 8.56101 13.8783 8.55272C13.9081 8.55107 13.938 8.55155 13.968 8.55203H13.968L14.0047 8.55248ZM17.3118 12.8705L17.3129 12.8585C17.3134 12.8527 17.3139 12.8476 17.3144 12.8434L17.3074 12.7189C17.3023 12.6267 17.2978 12.547 17.2918 12.4674C17.2896 12.438 17.2843 12.4088 17.279 12.3795L17.279 12.3795L17.279 12.3795L17.2789 12.3793C17.276 12.3631 17.273 12.3468 17.2706 12.3306C17.1199 11.3219 16.6037 10.5665 15.7 10.0879C15.2556 9.85259 14.7728 9.74456 14.273 9.71617C14.1208 9.70758 14.0188 9.80797 14.0122 9.94755C14.005 10.0965 14.0857 10.1928 14.2369 10.2138C14.2839 10.2204 14.331 10.2262 14.3781 10.2321L14.3783 10.2321L14.3783 10.2321C14.4561 10.2417 14.5339 10.2514 14.6112 10.2642C14.8952 10.3112 15.1754 10.39 15.4345 10.5169C15.863 10.7268 16.2284 11.0736 16.4675 11.4861C16.7002 11.8875 16.8004 12.3483 16.8012 12.8097C16.8013 12.8802 16.8047 12.9547 16.8273 13.0202C16.9037 13.2409 17.2352 13.2135 17.293 12.9948C17.3049 12.9498 17.309 12.9027 17.3118 12.8705ZM15.9604 12.7907C15.7781 12.794 15.6806 12.6931 15.6618 12.5261L15.6565 12.4773C15.6456 12.3768 15.6346 12.2757 15.6106 12.1782C15.5559 11.955 15.4372 11.7481 15.2495 11.6113C15.1608 11.5467 15.0604 11.4997 14.9552 11.4693C14.8841 11.4488 14.8116 11.4422 14.7393 11.4356H14.7393C14.6755 11.4298 14.6118 11.424 14.5493 11.4086C14.4045 11.3731 14.3244 11.2559 14.3471 11.12C14.3678 10.9963 14.4882 10.8998 14.6233 10.9096C15.4677 10.9706 16.0713 11.4071 16.1574 12.4013L16.158 12.408C16.1639 12.4761 16.1701 12.5477 16.1551 12.6127C16.1284 12.7276 16.0434 12.7851 15.9604 12.7907Z" fill="#7D3DAF"/>
</svg>
