<svg width="28" height="28" viewBox="0 0 28 28" fill="none" xmlns="http://www.w3.org/2000/svg">
    <path fill-rule="evenodd" clip-rule="evenodd" d="M14 0C6.26801 0 0 6.26801 0 14C0 21.732 6.26801 28 14 28C21.732 28 28 21.732 28 14C28 6.26801 21.732 0 14 0ZM20.1958 16.2619C20.0533 16.103 19.9107 15.9439 19.7703 15.7824C19.2917 15.2325 19.2611 14.9134 19.6464 14.2803C19.8696 13.9112 20.1021 13.55 20.3345 13.189C20.5387 12.8717 20.7429 12.5545 20.9407 12.2321C20.9556 12.2078 20.9706 12.1834 20.9855 12.159C21.3665 11.5379 21.7486 10.9149 21.9486 10.1729C22.0806 9.68147 21.9635 9.46496 21.5363 9.37919C21.4635 9.36451 21.3874 9.36321 21.3122 9.36321L18.7769 9.36055C18.4645 9.35343 18.2916 9.5142 18.1814 9.84094C18.0327 10.2813 17.8792 10.7219 17.7007 11.1463C17.2986 12.1113 16.8484 13.0433 16.2177 13.8319C16.2087 13.8431 16.1996 13.8545 16.1905 13.866C16.0578 14.0329 15.9094 14.2195 15.6916 14.1357C15.4006 14.0097 15.3154 13.445 15.3199 13.2547L15.3177 9.80749C15.2609 9.3159 15.1688 9.09642 14.7541 9H12.1198C11.7685 9 11.5923 9.16083 11.4049 9.4192C11.297 9.56901 11.2639 9.66667 11.4867 9.7164C11.9233 9.81393 12.1697 10.1476 12.2346 10.663C12.3402 11.4889 12.3323 12.3163 12.2721 13.1451C12.2539 13.386 12.2185 13.6283 12.1378 13.8532C12.0107 14.2079 11.8049 14.2802 11.5346 14.0621C11.2902 13.8652 11.1186 13.5854 10.9504 13.3056C10.3185 12.2547 9.81507 11.1209 9.40366 9.92918C9.28433 9.58523 9.07973 9.3764 8.77067 9.37108C8.00936 9.35615 7.24905 9.35492 6.48864 9.37232C6.03071 9.38161 5.89434 9.64406 6.08081 10.133C6.90919 12.3031 7.83089 14.4141 9.03447 16.3352C9.65263 17.3218 10.3628 18.1933 11.2787 18.8106C12.3175 19.5108 13.4358 19.7208 14.6141 19.6553C15.1654 19.6257 15.3313 19.4557 15.3563 18.8091C15.3745 18.366 15.4165 17.9257 15.6017 17.528C15.7835 17.1371 16.0597 17.0625 16.3779 17.3059C16.537 17.4276 16.6702 17.5815 16.7974 17.7451C16.8977 17.8746 16.9969 18.0053 17.096 18.136C17.3035 18.4094 17.5109 18.6828 17.7293 18.9448C18.1325 19.429 18.6121 19.7142 19.2133 19.6554L21.5442 19.6566C21.9192 19.6272 22.1147 19.0851 21.8989 18.5924C21.7466 18.2459 21.5475 17.9377 21.3372 17.6391C20.9872 17.145 20.5916 16.7036 20.1958 16.2619Z" fill="#5281B7"/>
</svg>
